<?xml version="1.0" encoding="utf-8"?>
<!-- Generator: Adobe Illustrator 26.0.0, SVG Export Plug-In . SVG Version: 6.00 Build 0)  -->
<svg version="1.1" id="Layer_1" xmlns="http://www.w3.org/2000/svg" xmlns:xlink="http://www.w3.org/1999/xlink" x="0px" y="0px"
	 viewBox="0 0 427.3 417.4" style="enable-background:new 0 0 427.3 417.4;" xml:space="preserve">
<style type="text/css">
	.st0{fill:#EBEBEB;}
	.st1{fill:#DBDBDB;}
	.st2{fill:#C7C7C7;}
	.st3{fill:#FFFFFF;}
	.st4{fill:#263238;}
	.st5{fill:#1447E6;}
	.st6{opacity:0.1;}
	.st7{fill:#A6A6A6;}
	.st8{fill:#455A64;}
	.st9{fill:#F7A9A0;}
	.st10{fill:#37474F;}
	.st11{opacity:0.1;fill:#FFFFFF;enable-background:new    ;}
	.st12{opacity:0.3;}
	.st13{fill:#FF97B8;}
	.st14{opacity:0.1;enable-background:new    ;}
	.st15{fill:#C95F50;}
</style>
<g>
	<g id="freepik--background-complete--inject-2">
		<path class="st0" d="M60.5,66.9c-0.5-0.8-0.5-1.7,0-2.4l0.4-0.6l0.3-0.7c0.4-0.8,1.1-1.3,2-1.4l3-0.1l-0.3-9.8l-3,0.1
			c-0.9,0-1.6-0.5-2.1-1.2c-0.2-0.4-0.5-0.8-0.8-1.2c-0.5-0.7-0.6-1.6-0.2-2.4l1.4-2.7l-8.6-4.6l-1.4,2.7c-0.4,0.8-1.2,1.2-2.1,1.2
			c-0.5,0-1,0-1.5,0c-0.9,0.1-1.7-0.3-2.2-1.1l-1.6-2.5l-8.3,5.2l1.6,2.6c0.5,0.7,0.5,1.7,0,2.4c-0.1,0.2-0.2,0.4-0.4,0.6l-0.3,0.7
			c-0.4,0.8-1.1,1.3-2,1.4l-3,0.1l0.3,9.8l3-0.1c0.9,0,1.6,0.4,2.1,1.2c0.2,0.4,0.5,0.8,0.8,1.2c0.5,0.7,0.6,1.7,0.2,2.4l-1.4,2.6
			l8.7,4.6l1.4-2.6c0.4-0.8,1.2-1.2,2.1-1.2c0.5,0,1,0,1.5-0.1c0.9-0.1,1.7,0.3,2.2,1.1l1.6,2.6l8.3-5.2L60.5,66.9z M45,64.4
			c-3.9-2.1-5.3-7-3.2-10.8c2.1-3.9,7-5.3,10.8-3.2c3.9,2.1,5.3,6.9,3.3,10.8C53.8,65,49,66.5,45,64.4C45,64.5,45,64.4,45,64.4z"/>
		<path class="st0" d="M30.8,14.1c-0.5-0.3-0.8-0.9-0.8-1.5c0-0.2,0-0.3,0-0.5s0-0.3,0-0.5c0-0.6,0.3-1.2,0.8-1.5l1.8-1l-3.4-6
			l-1.8,1c-0.5,0.3-1.2,0.3-1.7-0.1c-0.3-0.2-0.6-0.4-0.9-0.5c-0.6-0.3-0.9-0.8-0.9-1.5V0H17v2.1c0,0.6-0.3,1.2-0.9,1.5
			c-0.3,0.2-0.6,0.3-0.9,0.5c-0.5,0.3-1.2,0.4-1.7,0.1l-1.8-1.1l-3.4,6l1.8,1c0.5,0.3,0.8,0.9,0.8,1.5c0,0.2,0,0.3,0,0.5
			s0,0.3,0,0.5c0,0.6-0.3,1.2-0.8,1.5l-1.8,1l3.4,6l1.8-1c0.5-0.3,1.2-0.3,1.7,0c0.3,0.2,0.6,0.4,0.9,0.5c0.6,0.3,0.9,0.8,0.9,1.4
			v2.1h6.9v-2.1c0-0.6,0.3-1.2,0.9-1.4c0.3-0.2,0.6-0.3,0.9-0.5c0.5-0.3,1.2-0.3,1.7,0l1.8,1l3.4-6L30.8,14.1z M20.5,17.7
			c-3.1,0-5.6-2.5-5.6-5.6c0-3.1,2.5-5.6,5.6-5.6c3.1,0,5.6,2.5,5.6,5.6c0,0,0,0,0,0C26.1,15.2,23.6,17.7,20.5,17.7z"/>
		<path class="st0" d="M417.5,156c-0.5-0.3-0.8-0.9-0.8-1.5c0-0.2,0-0.3,0-0.5s0-0.3,0-0.5c0-0.6,0.3-1.2,0.8-1.5l1.8-1l-3.4-6
			L414,146c-0.5,0.3-1.2,0.3-1.7-0.1c-0.3-0.2-0.6-0.4-0.9-0.5c-0.6-0.3-0.9-0.8-0.9-1.4v-2.1h-6.9v2.1c0,0.6-0.3,1.2-0.9,1.4
			c-0.3,0.2-0.6,0.3-0.9,0.5c-0.5,0.3-1.2,0.4-1.7,0.1l-1.8-1.1l-3.4,6l1.8,1.1c0.5,0.3,0.8,0.9,0.8,1.5c0,0.2,0,0.3,0,0.5
			s0,0.3,0,0.5c0,0.6-0.3,1.2-0.8,1.5l-1.8,1.1l3.4,6l1.8-1.1c0.5-0.3,1.2-0.3,1.7,0.1c0.3,0.2,0.6,0.4,0.9,0.5
			c0.6,0.3,0.9,0.8,0.9,1.4v2.1h6.9v-2.1c0-0.6,0.3-1.2,0.9-1.4c0.3-0.2,0.6-0.3,0.9-0.5c0.5-0.3,1.2-0.4,1.7-0.1l1.8,1.1l3.4-6
			L417.5,156z M407.1,159.6c-3.1,0-5.6-2.5-5.6-5.6s2.5-5.6,5.6-5.6c3.1,0,5.6,2.5,5.6,5.6S410.2,159.6,407.1,159.6L407.1,159.6z"/>
		<rect x="4.3" y="241" class="st0" width="88.2" height="122.1"/>
		<rect y="236.5" class="st1" width="96.8" height="4.5"/>
		<rect x="96.8" y="236.5" class="st0" width="30.4" height="4.5"/>
		<rect x="92.5" y="241" class="st1" width="29.9" height="122.1"/>
		<path class="st2" d="M83,297.5H13.8v-39.2h69.3L83,297.5z M14,297.3h68.8v-38.7H14L14,297.3z"/>
		<rect x="38.7" y="269.8" class="st2" width="13.5" height="7.8"/>
		<path class="st2" d="M56.3,277.1H42.6v-6.8h13.7V277.1z M42.8,276.9h13.2v-6.3H42.8V276.9z"/>
		<path class="st2" d="M83,346.7H13.8v-39.2h69.3L83,346.7z M14,346.4h68.8v-38.7H14L14,346.4z"/>
		<rect x="38.7" y="319" class="st2" width="13.5" height="7.8"/>
		<path class="st2" d="M56.3,326.3H42.6v-6.8h13.7V326.3z M42.8,326h13.2v-6.3H42.8V326z"/>
		<rect x="346.4" y="303.5" class="st0" width="53.2" height="58.9"/>
		<rect x="399.6" y="303.5" class="st1" width="27.5" height="58.9"/>
		<polygon class="st3" points="377.5,316.2 376.4,316.2 375.5,316.2 375.1,315.2 374.4,316.2 373.5,314.2 372.6,316.2 370.1,316.2 
			369,316.2 368.6,314.9 368.2,316.2 367.4,316.2 367.4,303.5 377.5,303.5 		"/>
		<path class="st0" d="M425.1,358.3c-2-4.2-4-8.4-6-12.6l-6-12.7l-5.9-12.7c-2-4.2-3.9-8.5-5.8-12.8c2,4.2,4,8.4,6,12.6l6,12.7
			l5.9,12.7C421.3,349.8,423.2,354,425.1,358.3z"/>
		<path class="st0" d="M425.1,307.6c-1.9,4.3-3.8,8.5-5.8,12.8l-5.9,12.7l-6,12.7c-2,4.2-4,8.4-6,12.6c1.9-4.3,3.8-8.5,5.8-12.8
			l5.9-12.7l6-12.7C421.1,315.9,423.1,311.7,425.1,307.6z"/>
		<rect x="337.2" y="244.7" class="st0" width="53.2" height="58.9"/>
		<rect x="390.4" y="244.7" class="st1" width="27.5" height="58.9"/>
		<polygon class="st3" points="368.3,257.4 367.2,257.4 366.3,257.4 365.9,256.5 365.2,257.4 364.2,255.4 363.4,257.4 360.9,257.4 
			359.8,257.4 359.4,256.1 359,257.4 358.2,257.4 358.2,244.7 368.3,244.7 		"/>
		<path class="st0" d="M415.9,299.5c-2-4.2-4-8.4-6-12.6l-6-12.7l-5.9-12.7c-1.9-4.2-3.9-8.5-5.8-12.8c2,4.2,4,8.4,6,12.6l6,12.7
			l5.9,12.7C412.1,291,414,295.3,415.9,299.5z"/>
		<path class="st0" d="M415.9,248.8c-1.9,4.3-3.8,8.5-5.8,12.8l-5.9,12.7l-6,12.7c-2,4.2-4,8.4-6,12.6c1.9-4.3,3.8-8.5,5.8-12.8
			l5.9-12.7l6-12.7C411.9,257.2,413.9,253,415.9,248.8z"/>
	</g>
	<g id="freepik--Shadow--inject-2">
		<ellipse class="st0" cx="213.8" cy="397.8" rx="203" ry="19.7"/>
	</g>
	<g id="freepik--Floor--inject-2">
		<polygon class="st4" points="0.3,362.6 53.6,362.4 107,362.3 213.8,362.1 320.6,362.3 373.9,362.4 427.3,362.6 373.9,362.9 
			320.6,362.9 213.8,363.1 107,362.9 53.6,362.9 		"/>
	</g>
	<g id="freepik--qa-list--inject-2">
		<rect x="107.4" y="39.8" class="st5" width="226.6" height="300.9"/>
		<g class="st6">
			<rect x="107.4" y="39.8" width="226.6" height="300.9"/>
		</g>
		<rect x="113.6" y="39.8" class="st5" width="226.6" height="300.9"/>
		
			<rect x="126.9" y="53.1" transform="matrix(0.9999 -1.274056e-02 1.274056e-02 0.9999 -2.3849 2.9059)" class="st0" width="200" height="271.1"/>
		
			<rect x="91.3" y="88.7" transform="matrix(2.164036e-02 -0.9998 0.9998 2.164036e-02 33.3634 411.4095)" class="st1" width="271.1" height="200"/>
		<rect x="126.9" y="53.1" class="st3" width="200" height="271.1"/>
		<rect x="157.4" y="153.8" class="st0" width="19.2" height="19.2"/>
		<rect x="187" y="153.8" class="st4" width="62.1" height="2.8"/>
		<rect x="187" y="159.3" class="st0" width="109.4" height="2.8"/>
		<rect x="187" y="164.7" class="st0" width="109.4" height="2.8"/>
		<rect x="187" y="170.2" class="st0" width="109.4" height="2.8"/>
		<path class="st5" d="M158.8,162.4c0.7,0.6,1.4,1.2,2,1.8s1.3,1.3,2,1.9c1.3,1.3,2.5,2.6,3.8,3.9l-2.2,0.1c1.7-3.6,3.8-7.1,6-10.5
			c1.1-1.7,2.3-3.3,3.6-4.9c1.3-1.6,2.6-3.1,4.1-4.6c-0.6,2-1.3,3.9-2.1,5.8c-0.8,1.9-1.7,3.6-2.7,5.4c-1.9,3.5-4.1,6.9-6.5,10.2
			l-1.2,1.6l-1-1.5c-1-1.5-2-3-3-4.6c-0.5-0.8-0.9-1.6-1.4-2.4C159.7,164,159.2,163.2,158.8,162.4z"/>
		<rect x="157.4" y="194" class="st0" width="19.2" height="19.2"/>
		<rect x="187" y="194" class="st4" width="62.2" height="2.8"/>
		<rect x="187" y="199.5" class="st0" width="109.4" height="2.8"/>
		<rect x="187" y="204.9" class="st0" width="109.4" height="2.8"/>
		<rect x="187" y="210.4" class="st0" width="109.4" height="2.8"/>
		<rect x="157.4" y="234.2" class="st0" width="19.2" height="19.2"/>
		<rect x="187" y="234.2" class="st4" width="62.1" height="2.8"/>
		<rect x="187" y="239.7" class="st0" width="109.4" height="2.8"/>
		<rect x="187" y="245.1" class="st0" width="109.4" height="2.8"/>
		<rect x="187" y="250.6" class="st0" width="109.4" height="2.8"/>
		<rect x="157.4" y="274.4" class="st0" width="19.2" height="19.2"/>
		<rect x="187" y="274.4" class="st4" width="62.2" height="2.8"/>
		<rect x="187" y="279.9" class="st0" width="109.4" height="2.8"/>
		<rect x="187" y="285.3" class="st0" width="109.4" height="2.8"/>
		<rect x="187" y="290.8" class="st0" width="109.4" height="2.8"/>
		<path class="st4" d="M189.7,133c-0.2,0.1-0.4,0.3-0.7,0.3c-0.3,0.1-0.5,0.1-0.8,0.1c-0.4,0-0.8-0.1-1.1-0.2
			c-0.3-0.2-0.6-0.4-0.9-0.6c-0.2-0.3-0.4-0.6-0.5-0.9c-0.1-0.3-0.2-0.7-0.2-1c0-0.4,0.1-0.7,0.2-1.1c0.1-0.3,0.3-0.6,0.6-0.9
			c0.2-0.3,0.5-0.5,0.9-0.6c0.3-0.2,0.7-0.2,1.1-0.2c0.4,0,0.8,0.1,1.1,0.2c0.3,0.2,0.6,0.4,0.9,0.6c0.2,0.3,0.4,0.6,0.6,0.9
			c0.3,0.7,0.3,1.4,0,2.1c-0.1,0.3-0.3,0.6-0.6,0.9l0.7,0.8h-0.9L189.7,133z M188.2,132.6c0.2,0,0.3,0,0.5-0.1
			c0.2,0,0.3-0.1,0.4-0.2l-0.8-0.9h0.9l0.4,0.5c0.1-0.2,0.2-0.4,0.3-0.6c0.1-0.2,0.1-0.5,0.1-0.7c0-0.3,0-0.5-0.1-0.8
			c-0.1-0.2-0.2-0.5-0.4-0.6c-0.2-0.2-0.4-0.3-0.6-0.5c-0.2-0.1-0.5-0.2-0.7-0.2c-0.3,0-0.5,0.1-0.8,0.2c-0.2,0.1-0.4,0.3-0.6,0.5
			c-0.2,0.2-0.3,0.4-0.4,0.7c-0.1,0.2-0.1,0.5-0.1,0.8c0,0.3,0,0.5,0.1,0.8c0.1,0.2,0.2,0.5,0.4,0.7c0.2,0.2,0.4,0.3,0.6,0.4
			C187.7,132.6,188,132.6,188.2,132.6L188.2,132.6z"/>
		<path class="st4" d="M194.2,132.6c0.3,0,0.5,0,0.7-0.2c0.2-0.1,0.4-0.3,0.5-0.5c0.1-0.2,0.2-0.4,0.2-0.6c0.1-0.2,0.1-0.5,0.1-0.7
			v-2.9h0.9v2.9c0,0.4,0,0.7-0.1,1.1c-0.1,0.3-0.2,0.6-0.4,0.9c-0.2,0.3-0.5,0.5-0.8,0.6c-0.3,0.2-0.7,0.2-1.1,0.2
			c-0.4,0-0.8-0.1-1.1-0.2c-0.3-0.1-0.6-0.4-0.8-0.6c-0.2-0.3-0.3-0.6-0.4-0.9c-0.1-0.3-0.1-0.7-0.1-1.1v-2.9h0.9v2.9
			c0,0.3,0,0.5,0.1,0.8c0,0.2,0.1,0.4,0.2,0.6c0.1,0.2,0.3,0.3,0.5,0.4C193.7,132.6,193.9,132.6,194.2,132.6z"/>
		<path class="st4" d="M199.2,127.7h0.8l2.2,5.6h-0.9l-0.6-1.5h-2.2l-0.6,1.5h-1L199.2,127.7z M200.5,131.2l-0.9-2.4l-0.9,2.4H200.5
			z"/>
		<path class="st4" d="M202.9,133.4v-5.6h0.9v4.9h3v0.8H202.9z"/>
		<path class="st4" d="M207.6,133.4v-5.6h0.9v5.6H207.6z"/>
		<path class="st4" d="M213.9,128.5H212v4.9h-0.9v-4.9h-1.9v-0.8h4.7V128.5z"/>
		<path class="st4" d="M215,127.7l1.6,2.8l1.6-2.8h1l-2.1,3.6v2h-0.9v-2l-2.1-3.6L215,127.7z"/>
		<path class="st4" d="M223,127.7h0.8l2.2,5.6h-0.9l-0.6-1.5h-2.2l-0.6,1.5h-0.9L223,127.7z M224.3,131.2l-0.9-2.4l-0.9,2.4H224.3z"
			/>
		<path class="st4" d="M229.9,129.1c-0.1-0.1-0.1-0.1-0.2-0.2c-0.1-0.1-0.2-0.1-0.4-0.2c-0.3-0.1-0.6-0.2-0.9-0.2
			c-0.3,0-0.6,0-0.8,0.2c-0.3,0.2-0.3,0.6-0.2,0.9c0.1,0.1,0.2,0.2,0.3,0.2c0.1,0.1,0.3,0.1,0.4,0.2l0.6,0.2
			c0.3,0.1,0.5,0.1,0.8,0.2c0.2,0.1,0.4,0.2,0.6,0.3c0.2,0.1,0.3,0.3,0.4,0.4c0.1,0.2,0.1,0.4,0.1,0.6c0,0.3,0,0.5-0.2,0.7
			c-0.1,0.2-0.3,0.4-0.5,0.5c-0.2,0.1-0.4,0.2-0.6,0.3c-0.3,0.1-0.5,0.1-0.8,0.1c-0.4,0-0.8-0.1-1.2-0.2c-0.4-0.1-0.8-0.3-1.1-0.6
			l0.4-0.8c0.1,0.1,0.2,0.2,0.3,0.2c0.1,0.1,0.3,0.2,0.5,0.2c0.2,0.1,0.4,0.1,0.6,0.2c0.2,0,0.4,0.1,0.6,0.1c0.3,0,0.6,0,0.8-0.2
			c0.2-0.1,0.3-0.3,0.3-0.5c0-0.1,0-0.3-0.1-0.4c-0.1-0.1-0.2-0.2-0.3-0.2c-0.2-0.1-0.3-0.1-0.5-0.2l-0.6-0.2
			c-0.3-0.1-0.5-0.1-0.7-0.2c-0.2-0.1-0.4-0.2-0.5-0.3c-0.1-0.1-0.2-0.3-0.3-0.4c-0.1-0.2-0.1-0.4-0.1-0.6c0-0.3,0-0.5,0.2-0.7
			c0.1-0.2,0.2-0.4,0.4-0.5c0.2-0.2,0.4-0.3,0.6-0.3c0.3-0.1,0.5-0.1,0.8-0.1c0.4,0,0.7,0.1,1.1,0.2c0.3,0.1,0.6,0.3,0.9,0.4
			L229.9,129.1z"/>
		<path class="st4" d="M234.8,129.1c-0.1-0.1-0.1-0.1-0.2-0.2c-0.1-0.1-0.2-0.1-0.4-0.2c-0.1-0.1-0.3-0.1-0.4-0.1
			c-0.2,0-0.3-0.1-0.5-0.1c-0.3,0-0.6,0.1-0.8,0.2c-0.2,0.1-0.3,0.3-0.3,0.6c0,0.1,0,0.2,0.1,0.3c0.1,0.1,0.2,0.2,0.3,0.2
			c0.1,0.1,0.3,0.1,0.4,0.2l0.6,0.2c0.3,0.1,0.5,0.1,0.8,0.2c0.2,0.1,0.4,0.2,0.6,0.3c0.2,0.1,0.3,0.3,0.4,0.4
			c0.1,0.2,0.1,0.4,0.1,0.6c0,0.3-0.1,0.5-0.2,0.7c-0.1,0.2-0.3,0.4-0.4,0.5c-0.2,0.1-0.4,0.2-0.7,0.3c-0.3,0.1-0.5,0.1-0.8,0.1
			c-0.4,0-0.8-0.1-1.2-0.2c-0.4-0.1-0.8-0.3-1.1-0.6l0.4-0.8c0.1,0.1,0.2,0.2,0.3,0.2c0.1,0.1,0.3,0.2,0.5,0.2
			c0.2,0.1,0.4,0.1,0.6,0.2c0.2,0,0.4,0.1,0.6,0.1c0.3,0,0.6,0,0.8-0.2c0.3-0.2,0.4-0.6,0.2-0.9c-0.1-0.1-0.2-0.2-0.3-0.2
			c-0.2-0.1-0.3-0.1-0.5-0.2l-0.6-0.2c-0.2-0.1-0.5-0.1-0.7-0.2c-0.2-0.1-0.4-0.2-0.5-0.3c-0.1-0.1-0.2-0.3-0.3-0.4
			c-0.1-0.2-0.1-0.4-0.1-0.6c0-0.3,0-0.5,0.2-0.7c0.1-0.2,0.2-0.4,0.4-0.5c0.2-0.2,0.4-0.3,0.6-0.3c0.3-0.1,0.5-0.1,0.8-0.1
			c0.3,0,0.7,0.1,1,0.2c0.3,0.1,0.6,0.3,0.9,0.4L234.8,129.1z"/>
		<path class="st4" d="M238.6,132.6c0.3,0,0.5,0,0.7-0.2c0.2-0.1,0.4-0.3,0.5-0.5c0.1-0.2,0.2-0.4,0.2-0.6c0.1-0.2,0.1-0.5,0.1-0.7
			v-2.9h0.9v2.9c0,0.4,0,0.7-0.1,1.1c-0.1,0.3-0.2,0.6-0.4,0.9c-0.2,0.3-0.5,0.5-0.8,0.6c-0.4,0.2-0.7,0.2-1.1,0.2
			c-0.4,0-0.8-0.1-1.1-0.2c-0.3-0.1-0.6-0.4-0.8-0.6c-0.2-0.3-0.3-0.6-0.4-0.9c-0.1-0.3-0.1-0.7-0.1-1.1v-2.9h0.9v2.9
			c0,0.3,0,0.5,0.1,0.8c0,0.2,0.1,0.4,0.3,0.6c0.1,0.2,0.3,0.3,0.5,0.4C238.1,132.6,238.4,132.6,238.6,132.6z"/>
		<path class="st4" d="M242.3,133.4v-5.6h2.5c0.2,0,0.5,0,0.7,0.1c0.2,0.1,0.4,0.2,0.5,0.4c0.2,0.2,0.3,0.4,0.4,0.6
			c0.1,0.2,0.1,0.4,0.1,0.7c0,0.2,0,0.4-0.1,0.6c-0.1,0.2-0.1,0.3-0.2,0.5c-0.1,0.2-0.2,0.3-0.4,0.4c-0.1,0.1-0.3,0.2-0.5,0.2
			l1.3,2.1h-1l-1.2-2h-1.3v2L242.3,133.4z M243.2,130.6h1.6c0.1,0,0.2,0,0.4-0.1c0.1-0.1,0.2-0.1,0.3-0.2c0.1-0.1,0.1-0.2,0.2-0.3
			c0-0.1,0.1-0.3,0.1-0.4c0-0.1,0-0.3-0.1-0.4c0-0.1-0.1-0.2-0.2-0.3c-0.1-0.1-0.2-0.2-0.3-0.2c-0.1-0.1-0.2-0.1-0.3-0.1h-1.5V130.6
			z"/>
		<path class="st4" d="M249.1,127.7h0.8l2.2,5.6h-0.9l-0.6-1.5h-2.2l-0.6,1.5h-0.9L249.1,127.7z M250.4,131.2l-0.9-2.4l-0.9,2.4
			H250.4z"/>
		<path class="st4" d="M253.7,129.4v4h-0.9v-5.6h0.7l3.2,4.1v-4.1h0.9v5.6h-0.7L253.7,129.4z"/>
		<path class="st4" d="M258.5,130.5c0-0.3,0.1-0.7,0.2-1c0.1-0.3,0.3-0.6,0.5-0.9c0.2-0.3,0.5-0.5,0.9-0.6c0.4-0.2,0.8-0.3,1.1-0.2
			c0.5,0,0.9,0.1,1.3,0.4c0.4,0.2,0.6,0.5,0.8,0.9l-0.7,0.5c-0.1-0.2-0.2-0.3-0.3-0.4c-0.1-0.1-0.2-0.2-0.4-0.3
			c-0.1-0.1-0.3-0.1-0.4-0.1c-0.1,0-0.3,0-0.4,0c-0.3,0-0.5,0.1-0.8,0.2c-0.2,0.1-0.4,0.3-0.6,0.5c-0.2,0.2-0.3,0.4-0.3,0.7
			c-0.2,0.5-0.2,1,0,1.5c0.1,0.2,0.2,0.5,0.4,0.7c0.2,0.2,0.4,0.3,0.6,0.4c0.2,0.1,0.5,0.2,0.7,0.2c0.1,0,0.3,0,0.4-0.1
			c0.1,0,0.3-0.1,0.4-0.2c0.1-0.1,0.3-0.2,0.4-0.3c0.1-0.1,0.2-0.3,0.3-0.4l0.7,0.4c-0.1,0.2-0.2,0.4-0.4,0.6
			c-0.2,0.2-0.3,0.3-0.5,0.4c-0.2,0.1-0.4,0.2-0.7,0.3c-0.2,0.1-0.5,0.1-0.7,0.1c-0.4,0-0.8-0.1-1.1-0.3c-0.3-0.2-0.6-0.4-0.9-0.7
			c-0.2-0.3-0.4-0.6-0.5-0.9C258.6,131.3,258.5,130.9,258.5,130.5z"/>
		<path class="st4" d="M268.2,132.6v0.8h-3.9v-5.6h3.8v0.8h-2.9v1.6h2.5v0.7h-2.5v1.7H268.2z"/>
		<path class="st4" d="M243.6,77.2h7.4l16.3,42.8h-8.5l-4-10.7h-14.9l-4,10.7h-8.5L243.6,77.2z M253.2,103.5l-5.9-16.8l-6.1,16.8
			H253.2z"/>
		<rect x="177.8" y="34.3" class="st2" width="98.2" height="30"/>
		<path class="st2" d="M256.9,17.9h-61l-2.7,16.4h67.3L256.9,17.9z M226.9,29.7c-2,0-3.6-1.6-3.6-3.6c0-2,1.6-3.6,3.6-3.6
			c2,0,3.6,1.6,3.6,3.6c0,0,0,0,0,0C230.5,28.1,228.9,29.7,226.9,29.7C226.9,29.7,226.9,29.7,226.9,29.7L226.9,29.7z"/>
		<polygon class="st7" points="260.5,34.3 193.2,34.3 193.8,30.6 259.7,30.6 		"/>
	</g>
	<g id="freepik--Plant--inject-2">
		<path class="st5" d="M403.6,309.3c-0.7,2.6-1.2,5.2-1.4,7.8c0.1,0.1,0.1,0.6,0,0.5c0,0.4-0.7,0.4-0.7-0.1s0-0.5,0-0.8
			c-1.5-1.9-3.8-3.1-5.5-4.7c-1.4-1.3-2.5-3-3-4.8c-1.5-5.1-0.1-10.5-1.9-15.6c-1.5-4.4-4.3-8.2-6.6-12.2c-2.5-4.2-4.3-8.6-4.5-13.6
			c-0.1-3.8,0.3-8.8,3.2-11.7c3-3,6.8-0.8,9.2,1.9c6.8,7.8,9.9,17.6,11.2,27.7c0.8,5.6,1.2,11.2,1.2,16.8
			C404.7,303.4,404.3,306.4,403.6,309.3z"/>
		<path class="st4" d="M402.2,319.1c0.4-5.2,0.3-10.5-0.2-15.8c0,0,0,0,0-0.1c0.1-4.3,0.4-8.5,0.3-12.8c-0.2-4.6-0.8-9.2-1.9-13.7
			c0,0-0.1,0-0.1,0c0.8,4.4,1.3,8.9,1.5,13.4c0.1,2.4,0.1,4.8-0.1,7.2c0,0.8-0.1,1.6-0.2,2.4l0,0c-1.8-12-6.1-23.4-12.7-33.5
			c-0.1-0.1-0.3,0-0.2,0.1c4.7,7.7,8.2,16.1,10.3,24.9c-3.3-6-8.2-11-11.8-16.8c0,0-0.1,0-0.1,0c3.3,6.5,8.7,11.5,12.2,17.9
			c0.6,2.6,1.1,5.2,1.5,7.9c0.5,3.6,0.8,7.3,0.8,10.9c-2.1-3.6-4-7.4-5.7-11.2c0,0-0.1-0.1-0.1-0.1c0,0-0.1,0.1-0.1,0.1c0,0,0,0,0,0
			c1.3,4.3,3.3,8.3,5.8,11.9c0,2.6-0.1,5.2-0.2,7.8c-0.4,6.9-1.6,13.7-2.1,20.5c0,0.1,0.1,0.1,0.2,0.1c0.1,0,0.1-0.1,0.1-0.1
			C400.9,333.3,401.8,326.2,402.2,319.1z"/>
		<path class="st4" d="M394.9,266.1C394.9,266.1,394.9,266.1,394.9,266.1c1.2,3.5,1.9,7,2.8,10.6c0,0.1,0.1,0.1,0.1,0.1
			s0.1-0.1,0.1-0.1C397.5,273,396.5,269.5,394.9,266.1z"/>
		<path class="st5" d="M426.9,280.6c-0.8,2-1.8,4-2.9,5.9c-2.3,4.1-4.6,7.9-5,12.7c-0.1,2.1-0.4,4.3-0.9,6.3c-0.6,1.8-1.4,3.5-2.5,5
			c-2.5,3.6-5.5,6.6-7.8,10.4c-2.4,3.9-4.1,8.1-5.2,12.5c-0.1,0.2-0.4,0.2-0.4-0.1l0,0c0,0,0,0,0,0c-0.4-10.3,0.5-20.6,3.6-30.4
			c1.4-4.3,3.1-8.6,5-12.7c1.6-3.6,3.9-6.9,6.7-9.7c1.9-1.7,6-5,8.8-3.3C427.5,278.1,427.4,279.4,426.9,280.6z"/>
		<path class="st4" d="M416.6,303.9c-1.8,3-3.8,5.8-6,8.6c-1,1.3-2,2.6-3,3.9c-0.5,0.6-1,1.2-1.4,1.9c0.3-1.1,0.5-2.2,0.8-3.2
			c1.2-5.2,2.7-10.4,4.6-15.4c2-4.8,4.4-9.5,7.1-14c0.1-0.1-0.1-0.2-0.2-0.1c-2.2,3.6-4.4,7.1-6.2,10.9c-1,2.1-1.9,4.3-2.6,6.5
			c0.8-4.7,2-9.3,3.5-13.8c0,0,0-0.1-0.1,0c-2,4.6-3.2,9.4-3.6,14.4l0,0c-0.4,1.3-0.9,2.7-1.2,4c-1.6,5.7-3,11.5-4.4,17.4
			c0-3.8,0.3-7.6,1-11.4c0-0.1-0.1-0.1-0.1,0c-1,3.9-1.3,8-1,12c-0.5,2.2-1,4.4-1.5,6.6c-1,4.7-2.2,9.5-2.8,14.4
			c0,0.1,0.1,0.1,0.1,0.1c0,0,0.1,0,0.1-0.1c0.7-2.6,1.1-5.3,1.7-7.9s1.2-5.2,1.8-7.9c0.9-3.8,1.8-7.6,2.8-11.4
			c0.8-1.4,1.7-2.6,2.8-3.8c1-1.3,2-2.6,3-3.9C413.5,309.1,415.1,306.5,416.6,303.9C416.7,303.9,416.6,303.9,416.6,303.9z"/>
		<path class="st4" d="M417,299.5c-2.3,2.9-4.2,6-5.8,9.3 M411.2,308.8c2-3.1,3.9-6.2,5.9-9.3c0,0-0.1-0.1-0.1,0L411.2,308.8z"/>
		<path class="st5" d="M373.3,290.4c1.3,2.3,2.9,5,2.3,7.8c-0.4,1.7-1.6,3.1-1.9,4.9c-0.5,3.9,3.4,6.5,6.2,8.4
			c7,4.6,16.7,8.8,18,18.2c0,0.3,0.6,0.2,0.6-0.1c0,0,0,0,0-0.1c0,0,0,0,0,0c0.9-4.8,0.9-9.7-0.1-14.4c-1.2-4.8-3.1-9.3-5.7-13.5
			c-4.2-7.2-8.7-14.6-15.1-20.2c-1.8-1.5-5.4-4.3-6.8-0.8S371.7,287.6,373.3,290.4z"/>
		<path class="st4" d="M379.8,305.7c4.7,5.1,12.1,7.9,16.1,13.6c-2.2-8.6-6.5-16.6-12.4-23.3c-0.1-0.1-0.1-0.2,0-0.3s0.2-0.1,0.3,0
			c4.3,4.2,7.7,9.2,10.1,14.7c-1.1-3.8-2.6-7.6-4.4-11.1c0-0.1,0-0.1,0-0.2c0.1,0,0.1,0,0.2,0l0,0c2.2,3.9,3.8,8.1,4.7,12.5
			c5.3,12.8,5.8,27.9,4.7,41.4c0,0.2-0.3,0.2-0.3,0c0.3-10.7,0.1-21.5-2.4-31.9c0-0.2-0.1-0.4-0.2-0.6
			C391.9,314.4,384.5,311.6,379.8,305.7C379.6,305.7,379.7,305.7,379.8,305.7z"/>
		<path class="st4" d="M378.7,301.4c2.5,2.2,4.9,4.5,7.3,6.8c0,0,0,0.1,0,0c-2.8-1.9-5.3-4.1-7.4-6.7
			C378.6,301.4,378.6,301.4,378.7,301.4z"/>
		<path class="st4" d="M378.3,291.6c2.2,3.6,4.6,6.9,7.3,10.1 M385.6,301.8c-3-2.9-5.6-6.3-7.4-10.1c0-0.1,0.1-0.2,0.1-0.1
			L385.6,301.8z"/>
		<polygon class="st8" points="389.3,362.6 410.8,362.6 407.9,333.7 392.6,333.7 		"/>
		<polygon class="st4" points="392.1,338.4 408.4,338.4 407.9,333.7 392.6,333.7 		"/>
		<rect x="390" y="330.5" class="st8" width="20.1" height="4.6"/>
	</g>
	<g id="freepik--Bug--inject-2">
		<path class="st5" d="M212.7,97.3H200c0,0,0,0.5,0,1.2c0,0.3,0,0.6,0,0.9c0,0.8,0.1,1.6,0.3,2.4c0.1,0.3,0.1,0.6,0.2,0.9
			c0.2,0.8,0.5,1.5,0.9,2.2c0.1,0.3,0.3,0.6,0.5,0.9c1.9,2.5,5.4,3,7.8,1.1c0.4-0.3,0.8-0.7,1.1-1.1c0.2-0.3,0.4-0.6,0.5-0.9
			c0.4-0.7,0.6-1.4,0.8-2.2c0.1-0.3,0.1-0.6,0.2-0.9c0.2-0.8,0.3-1.6,0.3-2.4c0-0.3,0-0.6,0-0.9C212.7,98.1,212.7,97.7,212.7,97.3z
			 M206.7,106.2H206v-7.8h0.8V106.2z"/>
		<path class="st5" d="M212.8,96.3h-12.9c0-2.5,2.7-4.9,6.4-4.9S212.8,93.8,212.8,96.3z"/>
		<polygon class="st5" points="200.8,99.3 198.4,99.3 196.6,96.4 197.4,95.9 198.9,98.5 200.8,98.5 		"/>
		<rect x="197.1" y="101.7" class="st5" width="4.4" height="0.9"/>
		<polygon class="st5" points="198.5,107.3 197.9,106.8 199.7,104.8 202.5,104.8 202.5,105.7 200,105.7 		"/>
		<polygon class="st5" points="214.3,99.3 211.9,99.3 211.9,98.5 213.8,98.5 215.3,95.9 216.1,96.4 		"/>
		<rect x="211.2" y="101.7" class="st5" width="4.4" height="0.9"/>
		<polygon class="st5" points="214.2,107.3 212.6,105.7 210.2,105.7 210.2,104.8 213,104.8 214.8,106.8 		"/>
		<polygon class="st5" points="204.6,93.9 201,90.3 201,86.9 201.9,86.9 201.9,90 205.2,93.3 		"/>
		<polygon class="st5" points="208.1,93.9 207.5,93.3 210.8,90 210.8,86.9 211.7,86.9 211.7,90.3 		"/>
	</g>
	<g id="freepik--character-2--inject-2">
		<path class="st9" d="M259.9,395.3c2,0.6,58.3-0.1,60.5-1.5c0.8-0.5,1.2-8.7,1.4-18.7c0-0.1,0.9-36.7,0.9-36.7l-36.1,0.4l-1.2,36.7
			c0,0-21.5,9.9-23.6,11.7S258,394.7,259.9,395.3z"/>
		<path class="st1" d="M322,363.7c-0.2,6.4-0.2,11.4-0.2,11.4c-0.2,9.9-0.5,18.1-1.4,18.7c-2.1,1.4-58.5,2.1-60.5,1.5
			s-0.3-6.3,1.9-8.1s23.6-11.7,23.6-11.7l0.4-11.8L322,363.7z"/>
		<path class="st5" d="M276.9,379.4c0.1,0,0.2-0.1,0.2-0.1C277,379.3,276.9,379.3,276.9,379.4z"/>
		<path class="st5" d="M259.8,395.3c1.3,0.4,25.3,0.4,42.7-0.1c4-0.1,7.7-0.2,10.7-0.4c4.1-0.2,6.9-0.5,7.3-0.7
			c1-0.6,1.4-12.7,1.5-25.4l-36.8,0.2l0.2,6.6c0,0-21.6,9.9-23.8,11.7S257.8,394.6,259.8,395.3z"/>
		<path class="st4" d="M260.6,393c9.5-0.3,47.8-0.7,57.2-0.3c0.1,0,0.1,0,0,0.1c-9.4,0.5-47.7,0.6-57.2,0.4
			C260.4,393.1,260.4,393,260.6,393z"/>
		<path class="st4" d="M284.1,373.4c3.7-0.7,8.3-0.2,11.2,2.4c0.1,0.1,0,0.3-0.1,0.2c-3.6-1.1-7.3-1.9-11-2.2
			c-0.1,0-0.2-0.1-0.2-0.3C284,373.5,284,373.4,284.1,373.4z"/>
		<path class="st4" d="M281.4,375.1c3.7-0.7,8.3-0.2,11.2,2.4c0.1,0.1,0,0.3-0.1,0.2c-3.6-1.1-7.3-1.9-11-2.2
			c-0.1,0-0.2-0.1-0.2-0.3C281.3,375.2,281.3,375.1,281.4,375.1z"/>
		<path class="st4" d="M278.8,376.7c3.7-0.7,8.3-0.2,11.2,2.4c0.1,0.1,0,0.3-0.1,0.2c-3.6-1.1-7.3-1.9-11-2.2
			c-0.1,0-0.2-0.1-0.2-0.3C278.6,376.8,278.7,376.7,278.8,376.7z"/>
		<path class="st4" d="M276.1,378.4c3.7-0.7,8.3-0.2,11.2,2.4c0.1,0.1,0,0.2-0.2,0.2c-3.6-1.1-7.3-1.9-11-2.2
			c-0.1,0-0.2-0.1-0.2-0.2S275.9,378.4,276.1,378.4z"/>
		<path class="st4" d="M333.2,176.1c0,0-9.2,95.4-10.6,102.7c-0.3,1.7-0.9,93.4-0.9,93.4l-38.5-0.6c0,0,3.7-78.9,5.5-93.4
			s10-102.1,10-102.1L333.2,176.1z"/>
		<path class="st10" d="M320.6,364.1c-1.2-0.2-2.3-0.2-3.5-0.2l-3.5-0.2c-2.3-0.1-4.5-0.2-6.8-0.3c-4.6-0.2-9.3-0.3-13.9-0.5
			c-2.6-0.1-5.2-0.1-7.8-0.1c0,0-0.1,0-0.1,0.1c0,0,0,0.1,0.1,0.1c9.2,0.9,18.5,1.1,27.8,1.4l4,0.1c1.3,0.1,2.5,0,3.8-0.1
			C320.8,364.4,320.8,364.2,320.6,364.1z"/>
		<path class="st10" d="M328,180.3c-2.8,23.3-5.6,46.5-7.9,69.9c-1.1,11.6-2.2,23.1-3,34.8s-1,23.4-1.2,35.1
			c-0.2,13.2-0.5,26.5-0.3,39.7c0,0.1,0.2,0.1,0.2,0c1.1-23.4,0.8-46.9,2.1-70.3s3.8-46.7,6.4-70c1.4-13,2.8-26.1,4.1-39.1
			C328.5,180.1,328.1,180.1,328,180.3z"/>
		<path class="st9" d="M338.2,399.7c2.1,0.2,56.7-13.7,58.4-15.5c0.7-0.7-0.9-8.8-3-18.5l-0.1-0.3c-0.4-2-12-35.6-12-35.6l-35.4,9.1
			l12,35l0.2,0.6c0,0-18.5,14.7-20.2,16.9S336.2,399.6,338.2,399.7z"/>
		<path class="st1" d="M396.7,384.2c-1.7,1.9-56.4,15.7-58.4,15.5s-1.8-6.1-0.1-8.3s20.2-16.9,20.2-16.9l-0.2-0.6l-3.5-10.3
			c6.9-2.2,24.6-6.6,35.3-9.2c1.9,5.7,3.4,10.3,3.6,11c0,0.1,0,0.2,0.1,0.3C395.8,375.4,397.4,383.5,396.7,384.2z"/>
		<path class="st5" d="M338.2,400c1.4,0.1,24.6-5.8,41.4-10.4c3.9-1.1,7.4-2.1,10.3-3c3.9-1.2,6.5-2.1,6.9-2.5
			c0.8-0.9-1.7-12.6-4.6-25l-35.7,9.1l1.8,6.4c0,0-18.5,14.8-20.2,17.1S336.1,399.8,338.2,400z"/>
		<path class="st4" d="M338.4,397.6c9.1-2.6,46.2-12.2,55.4-14.1c0.1,0,0.1,0,0,0c-9,2.8-46.1,12.1-55.4,14.2
			C338.2,397.8,338.2,397.6,338.4,397.6z"/>
		<path class="st4" d="M356.5,372.9c3.4-1.6,8-2.2,11.4-0.3c0.1,0.1,0,0.3-0.1,0.2c-3.7-0.2-7.5,0-11.2,0.5c-0.1,0-0.3-0.1-0.3-0.2
			C356.3,373,356.4,372.9,356.5,372.9z"/>
		<path class="st4" d="M354.3,375.1c3.4-1.6,8-2.2,11.4-0.3c0.1,0.1,0,0.3-0.1,0.2c-3.7-0.2-7.5,0-11.2,0.5c-0.1,0-0.3-0.1-0.3-0.2
			C354.1,375.3,354.2,375.2,354.3,375.1z"/>
		<path class="st4" d="M352.1,377.4c3.4-1.6,8-2.2,11.4-0.3c0.1,0.1,0,0.3-0.1,0.3c-3.7-0.2-7.5,0-11.2,0.5c-0.1,0-0.3-0.1-0.3-0.2
			C351.9,377.5,352,377.4,352.1,377.4z"/>
		<path class="st4" d="M349.9,379.6c3.4-1.6,8-2.2,11.4-0.3c0.1,0.1,0,0.3-0.1,0.2c-3.7-0.2-7.5,0-11.2,0.5c-0.1,0-0.2-0.1-0.3-0.2
			C349.7,379.8,349.8,379.7,349.9,379.6z"/>
		<path class="st4" d="M354.8,371.2l39-9.4c0,0-29.2-75.9-30.8-81c-1.2-3.7-10.9-48.9-14.3-68.6c0,0,5.1-14.4-6.3-36.1h-43.6
			c0,0,1,20.7,6.2,33.8c3.5,1.2,6.9,2.8,10.1,4.6c0,0,12.5,70.6,14.5,77C334.2,305.5,354.8,371.2,354.8,371.2z"/>
		<path class="st10" d="M322.2,252.3c-1.6-8.3-3.1-16.6-4.7-25c-0.4-2.3-0.9-4.7-1.4-7s-0.9-4.7-1.6-7c0-0.1-0.1-0.1-0.2-0.1
			c-0.1,0-0.1,0.1-0.1,0.1c0.1,2.1,0.5,4.2,0.8,6.4s0.6,4.1,0.9,6.1c0.7,4.2,1.5,8.4,2.3,12.5c1.6,8.3,3.2,16.7,5.1,25
			c1.1,4.6,2.1,9.3,3.3,14c0,0.1,0.2,0,0.1,0C325.3,269,323.8,260.7,322.2,252.3z"/>
		<path class="st10" d="M313,204.1c0.6-1.4,0.1-3.1-0.1-4.6c-0.3-1.9-0.7-3.7-1-5.6c-0.8-4.2-1.6-8.4-2.5-12.6c-1.4-6.3-0.1,0-0.1,0
			c0.4,3.4,0.9,6.7,1.4,10s1.1,6.7,1.6,10.1c0.1,1.1,0,3.2-1.5,3.2c-1.3,0-2.1-2-2.6-3c-1.1-3-1.9-6.1-2.4-9.2
			c-0.8-3.7-1.4-7.4-2-11.2c0-0.1-0.2-0.1-0.2,0c0.2,3.7,0.7,7.4,1.3,11.1c0.6,3.5,1.1,7.2,2.6,10.4c0.5,1.2,1.3,2.7,2.7,3.1
			c0.2,0,0.4,0.1,0.6,0.1c0.1,1.1,0.3,2.2,0.5,3.3c0.2,1.2,0.5,2.3,0.9,3.4c0,0.1,0.1,0.1,0.1,0.1s0.1-0.1,0.1-0.1l0,0
			c-0.1-1.1-0.3-2.3-0.5-3.4c-0.2-1.1-0.5-2.2-0.8-3.3C311.8,205.7,312.6,205,313,204.1z"/>
		<path class="st10" d="M320.3,215.1c-2.2-1-4.5-1.8-6.9-2.3c-2.3-0.5-4.6-0.8-7-1c0,0-0.1,0-0.1,0.1c0,0,0,0.1,0.1,0.1l0,0
			C308.7,212.3,317.9,214.5,320.3,215.1C320.3,215.1,320.4,215.1,320.3,215.1z"/>
		<path class="st10" d="M377.1,334.2c-2.1-5.5-4.2-11.1-6.2-16.6c-4.1-11-8.4-21.9-12.5-32.9s-5.8-22.4-8-33.7
			c-1.1-5.8-2.3-11.6-3.4-17.4s-2.5-11.5-3.2-17.3s0.2-11.4-0.3-17c-0.4-5.1-1.8-10-4-14.6c-0.6-1.2-1.2-2.3-1.8-3.4
			c-0.1-0.1-0.3,0-0.2,0.1c2.5,4.8,4.2,9.9,5,15.2c0.4,2.7,0.5,5.3,0.4,8c-0.1,2.9-0.3,5.7-0.1,8.6c0.3,5.7,1.6,11.4,2.7,17
			s2.2,11.5,3.4,17.2s2.3,11.6,3.4,17.3c1,5.6,2.3,11.2,4,16.7c1.8,5.5,4,10.8,6,16.2c2.1,5.5,4.2,11.1,6.3,16.6
			c4.2,11,8.3,22,12.7,33c0.5,1.3,1,2.5,1.6,3.8c0.1,0.2,0.3,0,0.3-0.1C381.4,345.2,379.2,339.7,377.1,334.2z"/>
		<path class="st10" d="M389.3,353.7c-1.1,0.2-2.3,0.4-3.4,0.8l-3.4,0.9c-2.2,0.6-4.4,1.1-6.6,1.7l-13.4,3.6c-2.5,0.7-5,1.4-7.5,2.2
			c0,0-0.1,0.1,0,0.1c0,0,0,0,0,0c9.1-1.8,18.1-4.3,27-6.8c1.3-0.4,2.5-0.7,3.8-1.1c1.2-0.3,2.4-0.7,3.6-1.1
			C389.6,353.9,389.5,353.6,389.3,353.7z"/>
		<path class="st4" d="M289.4,148.3l6,0.3c1.9-3.3,2.6-7.2,2.2-10.9c-0.1-0.9,1.8,4.2,0.8,11.1c6.3,0.3,14.9,0.8,22.4,1.1
			c0.2-2.9,0.6-5.6,0.6-5.6c0.2,1.9,0.5,3.8,1.1,5.7l3,0.1c0.1-4.2,0.4-8.3,0.9-12.5c0.4,4.4,1.6,8.6,3.4,12.6
			c4.8,0.1,7.9,0.2,7.7-0.1c-7-8.5-1.6-13.1-3.4-20.4c-2.2-8.8-9.7-10.4-9.3-16.9c0.3-5.3,1.2-15-5.4-17.2c-3.6-3.7-9.1-5-14-3.1
			c-10.8,3.8-7,20.4-7.8,23.7c-1.2,4.8-3.5,6.4-5.3,11.8s0.5,9.2,0.7,13S288.2,148.2,289.4,148.3z"/>
		<path class="st4" d="M337.7,148.9c-1-1.5-1.7-3.1-2.2-4.7c-0.4-1.7-0.3-3.4,0.2-5c0.4-1.7,0.8-3.4,1-5.2c0.2-1.8,0.1-3.7-0.4-5.5
			c-0.5-1.8-1.5-3.4-2.8-4.8c-1.2-1.3-2.6-2.5-4-3.6c-1.4-1-2.6-2.3-3.7-3.6c-1-1.4-1.6-3.1-1.8-4.8c-0.1,1.8,0.3,3.6,1.2,5.2
			c1,1.5,2.2,2.9,3.5,4.1c1.3,1.1,2.6,2.3,3.7,3.6c1.1,1.3,1.9,2.8,2.4,4.4c0.4,1.6,0.6,3.3,0.4,5c-0.1,1.7-0.5,3.4-0.8,5.2
			c-0.1,0.9-0.2,1.8-0.2,2.7c0,0.9,0.2,1.9,0.5,2.7C335.5,146.1,336.5,147.6,337.7,148.9z"/>
		<path class="st4" d="M299.1,98.4c-0.8,2-1.4,4.2-1.6,6.3c-0.3,2.1-0.5,4.3-0.8,6.5l-0.3,3.2c-0.1,1-0.3,2.1-0.6,3.1
			c-0.7,2-1.7,3.8-3.1,5.4c-0.7,0.9-1.3,1.8-1.8,2.8c-0.5,1-1,2.1-1.3,3.2c-0.3,1.1-0.5,2.2-0.6,3.3c-0.1,1.1-0.1,2.3,0.1,3.4
			c0.2,1.1,0.5,2.2,0.7,3.2c0.2,1,0.4,2.1,0.4,3.1c0,2.2-1,4.2-2.8,5.4c2-1.1,3.3-3.2,3.4-5.4c0.1-1.1,0-2.2-0.2-3.3
			c-0.2-1.1-0.4-2.1-0.5-3.2c-0.2-2.1,0.1-4.2,0.7-6.2c0.3-1,0.7-1.9,1.2-2.9c0.5-0.9,1.1-1.8,1.8-2.6c0.7-0.9,1.3-1.8,1.9-2.8
			c0.6-1,1-2,1.4-3.1c0.3-1.1,0.5-2.2,0.5-3.3c0.1-1.1,0.1-2.2,0.2-3.3c0.1-2.2,0.2-4.3,0.3-6.5C298.2,102.6,298.6,100.4,299.1,98.4
			z"/>
		<path class="st9" d="M314.9,139.5c-6.5,8.9-30.9,28.9-41.9,27.5c-8.8-1.1-30.6-14.6-36.4-18.3c-4.8-3.1,7.3-23.7,11.6-21.9
			c5.4,2.3,21.5,18.1,26.8,18c2.1,0,16.3-5.5,33.3-12.3C315.1,130,318.8,134.2,314.9,139.5z"/>
		<path class="st9" d="M228.8,148.2c4.6,2.8,16.2,4.8,19.1,4.2s7.1-20.2,5.1-22.5s-18.1-10.6-23.6-9.9S224,145.4,228.8,148.2z"/>
		
			<rect x="222.1" y="109.4" transform="matrix(0.7387 -0.674 0.674 0.7387 -22.6808 183.304)" class="st8" width="5.9" height="23.1"/>
		<path class="st4" d="M222.2,83.3c-8-8.8-21.7-9.4-30.5-1.4c-8.8,8-9.4,21.7-1.4,30.5c3.9,4.2,9.2,6.7,14.9,7h1
			c11.5,0,21-9.1,21.5-20.6c0-0.3,0-0.7,0-1C227.8,92.5,225.8,87.3,222.2,83.3z M219.5,104.1c-0.8,1.7-2,3.3-3.4,4.6
			c-5.9,5.5-15.2,5.1-20.7-0.9s-5.1-15.2,0.9-20.7c5.9-5.5,15.2-5.1,20.7,0.9c2.6,2.9,4,6.6,3.8,10.5
			C220.7,100.4,220.3,102.3,219.5,104.1L219.5,104.1z"/>
		<path class="st11" d="M220.8,98.5c-0.2,3.9-1.9,7.5-4.7,10.1c-6,5.4-15.2,5-20.7-0.9c-5.4-6-5-15.2,0.9-20.7s15.2-5,20.7,0.9
			C219.6,90.9,221,94.6,220.8,98.5z"/>
		<path class="st11" d="M220.8,98.5c0,0.5-0.1,1.1-0.2,1.6c-0.7,4.8-3.8,8.9-8.2,11c-1.3,0.6-2.6,1-4,1.2c-1,0.1-1.9,0.2-2.9,0.1
			c-1,0-1.9-0.2-2.9-0.4l-0.7-0.2c-2.2-0.7-4.2-1.8-5.8-3.4c-0.2-0.2-0.5-0.5-0.7-0.7c-0.7-0.8-1.3-1.6-1.9-2.6
			c-0.4-0.7-0.8-1.5-1.1-2.4c-0.1-0.2-0.2-0.5-0.2-0.7c-0.5-1.5-0.7-3.1-0.6-4.7c0-0.1,0-0.1,0-0.2c0.3-7.7,6.5-13.7,14.2-13.9h0.5
			c1.4,0,2.9,0.2,4.2,0.6c0.2,0.1,0.5,0.1,0.7,0.2c0.8,0.3,1.6,0.6,2.4,1.1c1.2,0.7,2.3,1.6,3.3,2.6l0.2,0.3
			c1.5,1.6,2.5,3.5,3.2,5.6c0.1,0.2,0.1,0.5,0.2,0.7C220.8,95.7,220.9,97.1,220.8,98.5z"/>
		<g class="st12">
			<path class="st0" d="M216.8,87.8l-20.7,20.7c-0.2-0.2-0.5-0.5-0.7-0.7c-0.7-0.8-1.3-1.6-1.9-2.6l20-20
				C214.8,85.9,215.8,86.7,216.8,87.8z"/>
			<path class="st0" d="M205.8,83.2l-14.1,14.1c0-0.1,0-0.1,0-0.2C192,89.6,198.2,83.5,205.8,83.2z"/>
			<path class="st0" d="M220.7,100.1c-0.2,1.4-0.6,2.7-1.2,4l-7,7c-1.3,0.6-2.6,1-4,1.2L220.7,100.1z"/>
			<path class="st0" d="M220.4,94.3L202.6,112l-0.7-0.2l18.3-18.3C220.3,93.8,220.3,94.1,220.4,94.3z"/>
			<path class="st0" d="M211.1,84.1l-18.7,18.7c-0.1-0.2-0.2-0.5-0.2-0.7l18.2-18.2C210.7,83.9,210.9,84,211.1,84.1z"/>
		</g>
		
			<rect x="234.7" y="124.7" transform="matrix(0.7387 -0.674 0.674 0.7387 -29.2516 196.8074)" class="st4" width="9" height="22.9"/>
		<path class="st9" d="M234.9,121c1.9,2.1-1.7,3.1-1.7,3.1s5.5-0.2,6.6,2.7s-3.3,3.9-3.6,4c0.3,0,5.4-0.1,6.2,3s-3.7,3.5-4,3.6
			c0.3,0.1,3.9,1.1,4,3.6c0.1,4.2-9.3,1.8-12.2,3.6c0,0,2.6,5.3,2.6,5.4c0,0-9-2.2-11.3-6.2c-0.7-1.2-0.5-2.7,0.5-3.7
			c0,0-3-0.4-3.7-2.8c-0.4-1.2,1.3-2.9,1.3-2.9c-1.4-0.3-2.5-1.2-2.9-2.6c-0.4-1.7,1.3-3.1,1.3-3.1s-2.1-1.4-1.9-3.4
			C216.5,121.5,230.8,116.5,234.9,121z"/>
		<path class="st4" d="M218.3,128.3c4.5-2.9,9.8-4.4,15.1-4.3c0.2,0,0.2,0.3,0,0.3C228.2,125,223.2,126.3,218.3,128.3L218.3,128.3z"
			/>
		<path class="st4" d="M219.6,134.4c0,0-0.1-0.1,0-0.1c5-3.2,10.9-4.5,16.8-3.7c0.2,0,0.4,0.3,0.1,0.2
			C232.5,130.5,224.1,132.4,219.6,134.4z"/>
		<path class="st4" d="M238.8,137.5c-5.7-0.8-11.1,0.4-16.5,2.4c-0.1,0-0.1-0.1,0-0.1c2.4-1.7,5.9-2.6,8.7-3.1
			c2.6-0.5,5.3-0.3,7.8,0.6C238.9,137.4,238.9,137.5,238.8,137.5z"/>
		<path class="st4" d="M233.2,124.1c1.1,0,2.1,0.2,3.1,0.4c1,0.2,1.9,0.7,2.7,1.3c0.3,0.3,0.5,0.8,0.6,1.2c0,0.5-0.1,0.9-0.3,1.4
			c-0.5,0.8-1.3,1.4-2.3,1.6l-2.3,0.5l2.3,0.3c1,0.1,2.1,0.4,3,0.8c0.9,0.4,1.6,1.1,1.9,2c0.3,0.9-0.1,1.8-0.8,2.3
			c-0.9,0.5-1.8,0.8-2.9,0.8l-2.8,0.1l2.6,0.8c0.7,0.2,1.4,0.5,2.1,0.9c0.6,0.3,1.2,0.9,1.5,1.5c0.3,0.6,0.2,1.3-0.2,1.8
			c-0.5,0.5-1.2,0.9-1.9,1c-1.6,0.3-3.1,0.5-4.7,0.6c-0.8,0.1-1.6,0.1-2.4,0.2c-0.8,0.1-1.6,0.3-2.3,0.7c0.7-0.3,1.5-0.5,2.3-0.5
			c0.8,0,1.6-0.1,2.4-0.1c1.6,0,3.3-0.1,4.9-0.4c0.9-0.1,1.7-0.5,2.4-1.1c0.7-0.7,0.8-1.8,0.4-2.7c-0.4-0.8-1-1.5-1.8-1.9
			c-0.7-0.4-1.5-0.8-2.3-1l-0.1,0.9c1.2,0,2.3-0.3,3.4-0.9c0.6-0.3,1-0.9,1.2-1.5c0.2-0.6,0.2-1.3,0-1.9c-0.4-1.2-1.3-2.1-2.4-2.5
			c-1-0.5-2.1-0.8-3.3-0.9l0,0.8c1.2-0.3,2.2-1,2.7-2.1c0.2-0.5,0.3-1.1,0.3-1.7c-0.1-0.6-0.3-1.1-0.8-1.6c-0.9-0.7-1.9-1.1-3-1.2
			C235.4,124.1,234.3,124.1,233.2,124.1z"/>
		<path class="st9" d="M252,129.2c0,0-20.5-18.9-22.9-9.3c-0.7,2.9-0.2,15.4,2.3,15.4c3.3-0.1,4-5.4,4-8.7c0,0,5.2,5.8,10.3,3.4
			C247.7,129.1,249.9,128.8,252,129.2z"/>
		<path class="st4" d="M229.3,119.2c-0.4,1.1-0.7,2.2-0.7,3.4c-0.1,1.2-0.2,2.3-0.1,3.5c0.1,2.3,0.3,4.6,0.8,6.9
			c0.1,0.6,0.3,1.2,0.6,1.7c0.2,0.3,0.4,0.6,0.7,0.8c0.2,0.1,0.3,0.2,0.5,0.3c0.2,0.1,0.4,0.1,0.6,0.1c0.7,0,1.4-0.3,1.9-0.8
			c0.5-0.4,0.8-1,1.1-1.5c0.5-1.1,0.9-2.3,1-3.4c0.1-1.2,0.2-2.3,0.2-3.5l-0.7,0.3c0.6,0.6,1.3,1.2,2,1.7c0.7,0.5,1.5,0.9,2.3,1.3
			c0.8,0.3,1.7,0.6,2.5,0.7c0.9,0.1,1.8,0,2.6-0.2c-0.8,0.1-1.7,0.1-2.5-0.1c-0.8-0.2-1.6-0.5-2.4-0.9c-0.8-0.4-1.5-0.8-2.1-1.4
			c-0.7-0.5-1.3-1.1-1.8-1.7l-0.7-0.8v1.1c0,1.1-0.1,2.3-0.3,3.4c-0.1,1.1-0.5,2.2-1,3.2c-0.5,0.9-1.3,1.8-2.1,1.8s-1.2-1.1-1.5-2.1
			s-0.5-2.2-0.6-3.3s-0.3-2.3-0.4-3.4C228.8,123.7,228.9,121.4,229.3,119.2z"/>
		<path class="st0" d="M255.1,130.3l-6.9,27.3c0,0,17.3,10.6,26.2,10.6s30.6-15.8,38.1-23.8s8.1-17-6.2-12s-30.7,11.5-31.1,11.6
			S255.1,130.3,255.1,130.3z"/>
		<path class="st4" d="M258.2,147c0.5-2,2.2-10.1,2.5-12.2c0-0.1-0.1-0.1-0.1,0c-0.7,2-2.7,10.1-3.2,12.1c-0.9,4.1-1.9,8.1-2.5,12.3
			c0,0.1,0.1,0.1,0.1,0C256.4,155.2,257.3,151.1,258.2,147z"/>
		<path class="st0" d="M296.6,185.1c0,0,18,4.3,52.2,1.3c0,0-13.4-42.6-24.1-54.1c-4.9-5.2-9.7-4.4-13.7-1.1
			c-1,0.8-13.5,16.8-14.6,22.3c-0.9,4.9,3,10.4,3,10.4L296.6,185.1z"/>
		<path class="st5" d="M348.8,189.4c-34.1,2.9-52.8,0.8-52.8,0.8l3.4-26.4c0,0-4-5.4-3-10.4c0.7-3.5,8.4-15.9,12.9-22
			c0.8-1.1,1.2-0.8,1.2-0.8c-1.2,5-6.2,14.3-3.1,15.2c2.7,0.9,10.3-9.4,13.8-16.5c0.9,0.3,1.7,0.8,2.5,1.2
			C336.1,140.4,348.8,189.4,348.8,189.4z"/>
		<path class="st0" d="M322.7,132.5c-2.8,0.8-3.8,6.9-3,11.6s5.1,10.1,8.4,8.9c3.9-1.4,3.8-7.3,2.6-12
			C329.8,137,325.5,131.8,322.7,132.5z"/>
		<path class="st4" d="M302.9,141.8c-1.1,1.5-2.1,3-3,4.6c0.4-0.9,0.8-1.8,1.1-2.7c0,0,0-0.1-0.1,0c-0.3,0.6-0.7,1.3-0.9,2
			s-0.5,1.2-0.7,1.8l0,0c-1.2,1.8-2.2,3.8-2.8,5.9c-0.5,1.9-0.4,3.9,0.1,5.7c0.3,1,0.6,1.9,1.1,2.8c0.4,0.8,0.9,1.5,1.5,2.2
			c-0.3,2-0.6,4-0.8,5.9c-0.3,1.9-0.5,3.9-0.6,5.8c0,0.1,0.1,0.1,0.1,0.1c0,0,0.1,0,0.1-0.1l0.1-0.4 M297.9,175.4
			c0.4-1.8,0.6-3.7,0.9-5.5s0.7-5.8,0.7-5.8s-0.9-1.6-1.2-2.4c-0.4-0.9-0.7-1.9-1-2.8c-0.5-1.8-0.6-3.8-0.1-5.6
			c0.7-2,1.5-3.9,2.6-5.7c1.1-1.9,2.2-3.8,3.2-5.7c0-0.1-0.1-0.1-0.2-0.1L297.9,175.4z"/>
		<path class="st3" d="M346.5,181.1h-49.3l0.2-1.8h48.6C346.1,179.9,346.3,180.5,346.5,181.1z"/>
		<path class="st3" d="M347.5,184.7h-50.8l0.2-1.8H347C347.2,183.5,347.3,184.1,347.5,184.7z"/>
		<path class="st4" d="M307.4,146.1c-1.7,2.7-2.7,5.7-3,8.9c-0.1,0.8-0.1,1.6-0.1,2.3c0.1,0.8,0.2,1.6,0.3,2.3
			c0.3,1.5,0.8,3,1.4,4.4v0.1v0.1c-0.1,4.4-0.4,8.9-0.6,13.3s-0.5,8.9-0.9,13.3c0-4.4,0.1-8.9,0.2-13.3s0.3-8.9,0.5-13.3v0.2
			c-0.7-1.5-1.2-3-1.5-4.6c-0.1-0.8-0.2-1.6-0.2-2.4c0-0.8,0-1.6,0.1-2.4c0.4-3.2,1.6-6.2,3.5-8.8L307.4,146.1z"/>
		
			<rect x="269.4" y="156.9" transform="matrix(0.998 -6.261633e-02 6.261633e-02 0.998 -10.6198 18.2642)" class="st4" width="33.3" height="43.4"/>
		
			<rect x="276.7" y="154.7" transform="matrix(0.998 -6.366133e-02 6.366133e-02 0.998 -9.4231 18.4363)" class="st7" width="15.8" height="4.8"/>
		<polygon class="st7" points="280.1,155 282.1,154.9 281.9,152.7 286.6,152.4 286.8,154.6 288.7,154.5 288.5,150.4 279.9,151 		"/>
		<path class="st9" d="M328.1,137.4c5.8,13.8,15.6,45.6,8.5,50.4c-11.6,7.8-35.6,11.1-42.8,11.1c-3.1,0-7.8-23.9-4.6-24.9
			c3.9-1.2,29.1-2.7,29.5-4.7c0.2-1.1,0.1-11.3,1.1-24C320.9,130.7,325.3,130.8,328.1,137.4z"/>
		<path class="st9" d="M264.1,173.3c-0.6,1.5-0.1,3.2,1.1,4.3c-1.1,0.8-1.9,1.9-2.2,3.2c-0.5,2.3,2.9,4.1,2.9,4.1
			c-1,1-1.6,2.3-1.8,3.7c-0.2,2.2,2.9,4.5,2.9,4.5c-0.4,1.4-0.2,3,0.5,4.3c1.9,3.5,8,3.8,11.8,4s15-2.8,17.1-3.1l1.6-24.7
			c0,0-17-5.9-21.5-5.5C272.8,168.4,265.3,170.5,264.1,173.3z"/>
		<path class="st4" d="M265.4,177.2c4-1.3,8.2-1.4,12.3-1.7c0.1,0,0.1,0.1,0,0.1c-4.1,0.3-8.2,1.3-12.3,1.8c-0.1,0-0.1,0-0.1-0.1
			C265.3,177.2,265.4,177.2,265.4,177.2z"/>
		<path class="st4" d="M266,184.5c0.9-0.2,1.9-0.3,2.9-0.3c1,0,2,0,3,0c2,0,4.1,0.1,6.1,0.2c0.1,0,0.1,0.1,0,0.1c-2,0-4,0-6.1,0.1
			l-3,0.1c-1,0.1-1.9,0.1-2.9,0c-0.1,0-0.2-0.1-0.2-0.1C265.9,184.6,265.9,184.5,266,184.5z"/>
		<path class="st4" d="M267.1,193.1c0.8-0.2,1.7-0.2,2.6-0.1l2.8,0.1c1.9,0,3.7,0.1,5.6,0.1c0.1,0,0.1,0.1,0,0.1
			c-1.9,0-3.8,0.1-5.6,0.1h-2.8C268.8,193.5,267.9,193.4,267.1,193.1C267.1,193.2,267.1,193.1,267.1,193.1z"/>
		<path class="st0" d="M298,172.3l4.2,27.3c0,0,29.6-5.2,36-12.4c5.8-6.5-5.8-41.5-8.8-48.4s-7.1-9.1-9,1s-2.2,29-2.3,29.2
			S298,172.3,298,172.3z"/>
		<path class="st4" d="M306.9,184.4c-0.3-2.1-1.5-10.3-2.1-12.3c0-0.1-0.1,0-0.1,0c0,2.1,1.1,10.4,1.4,12.4c0.6,4.1,1.1,8.3,2,12.4
			c0,0.1,0.2,0.1,0.1,0C308.1,192.8,307.4,188.6,306.9,184.4z"/>
		<path class="st4" d="M318.8,157.5c0.2-3.9,0.5-7.9,0.8-11.8c0-0.1-0.1-0.1-0.1,0c-0.3,2.2-0.6,4.4-0.8,6.6
			c-0.1-1.2-0.1-2.4-0.2-3.5c0-0.1-0.1-0.1-0.1,0c-0.1,1.5,0,3.1,0.2,4.6c-0.1,1.3-0.2,2.7-0.3,4c-0.1,2-0.5,10.6-0.4,11.6
			c-3.4,0.3-6.6,1-10,1.5c-1.7,0.3-3.3,0.5-5,0.8c-1.7,0.2-3.4,0.5-5.1,0.9c-0.1,0,0.1,0.5,0.1,0.7s0.2,0.1,0.2,0s0-0.2,0-0.3
			c0.8,0,4.1-0.6,5-0.7l5-0.8c3.4-0.5,10.4-1.6,10.4-1.6C318.5,168.5,318.7,159.5,318.8,157.5z"/>
		<path class="st9" d="M320.2,131c-0.2,0.9-4.5,6.9-8.7,6.8c-1.4,0-1.4-7.5-1.4-7.5l-0.1-0.6l-1.8-7.7l9-5.9l1.3-0.8
			c0,0,0.4,2.1,0.8,4.8l0.1,0.4c0,0.1,0.1,0.3,0.1,0.4c0.1,0.4,0.1,0.8,0.2,1.2s0.1,0.6,0.1,0.9s0.1,0.6,0.1,1
			C320.1,126.3,320.3,128.6,320.2,131z"/>
		<path class="st4" d="M319.3,120c-1.5,4.4-4.9,7.9-9.3,9.6l-1.8-7.7l9-5.9l1.3-0.8C318.4,115.2,318.8,117.4,319.3,120z"/>
		<path class="st9" d="M296.7,107.6c-4,13.4,3.6,17.2,6.5,18.1c2.6,0.8,11.6,3.1,16.9-9.8s0.4-18.9-5.5-21S300.6,94.3,296.7,107.6z"
			/>
		<path class="st4" d="M299.2,105.9c0.3,0,0.6,0,1,0.1c0.3,0.1,0.7,0,1-0.1c0.2-0.1,0.2-0.4,0.2-0.6c-0.2-0.4-0.7-0.6-1.1-0.6
			c-0.4-0.1-0.9,0-1.3,0.3c-0.2,0.2-0.3,0.5-0.1,0.7C299,105.8,299.1,105.9,299.2,105.9z"/>
		<path class="st4" d="M308.5,108.4c-0.3-0.1-0.6-0.3-0.9-0.4c-0.3-0.1-0.6-0.3-0.8-0.6c-0.1-0.2,0-0.5,0.2-0.6
			c0.4-0.2,0.9-0.2,1.2,0c0.4,0.2,0.7,0.5,0.9,0.9c0.1,0.3,0,0.6-0.2,0.7C308.8,108.4,308.6,108.5,308.5,108.4z"/>
		<path class="st4" d="M305.4,111.1c0,0,0,0.1,0,0.1c-0.3,0.9-0.5,2,0.2,2.5c0,0,0,0.1,0,0.1C304.8,113.3,305,111.9,305.4,111.1z"/>
		<path class="st4" d="M306.5,110.4c1.5,0.3,0.7,3.3-0.6,3S305.3,110.1,306.5,110.4z"/>
		<path class="st4" d="M307.1,110.7c0.2,0.2,0.4,0.6,0.7,0.7s0.7-0.1,1-0.4c0,0,0,0,0,0c-0.1,0.6-0.5,1.1-1.1,1s-0.8-0.7-0.8-1.3
			C306.9,110.7,307,110.6,307.1,110.7z"/>
		<path class="st4" d="M300.4,109.6C300.4,109.6,300.3,109.6,300.4,109.6c-0.3,1-0.7,2.1-1.6,2.1l0,0
			C299.8,111.9,300.3,110.5,300.4,109.6z"/>
		<path class="st4" d="M299.8,108.4c-1.5-0.5-2.3,2.4-1,2.9S301,108.8,299.8,108.4z"/>
		<path class="st4" d="M299.1,108.5c-0.3,0.1-0.6,0.3-0.9,0.2s-0.5-0.5-0.6-0.8c0,0,0,0-0.1,0c-0.3,0.5-0.1,1.1,0.4,1.5
			c0.5,0.2,1-0.1,1.3-0.7C299.3,108.6,299.2,108.4,299.1,108.5z"/>
		<path class="st4" d="M303.6,118.7c-0.3,0.2-0.5,0.4-0.9,0.4c-0.3-0.1-0.7-0.2-1-0.4 M301.7,118.6c0.2,0.4,0.6,0.7,1.1,0.8
			c0.4,0,0.8-0.3,0.9-0.7c0,0,0,0-0.1,0L301.7,118.6z"/>
		<path class="st4" d="M300.5,116.2c0.2,0.6,0.6,1.2,1.1,1.6c0.3,0.2,0.6,0.4,1,0.4c0.8,0.1,1-0.6,1.1-1.2c0-0.3,0-0.7,0-1
			C302.6,116.4,301.5,116.5,300.5,116.2z"/>
		<path class="st13" d="M301.6,117.9c0.3,0.2,0.6,0.4,1,0.4c0.8,0.1,1-0.6,1.1-1.2C302.8,116.8,302,117.1,301.6,117.9z"/>
		<path class="st4" d="M300.7,114.3c0,0-0.6,1.3-0.7,2c0,0.1,0.1,0.1,0.4,0.2l0,0c1.1,0.5,2.3,0.4,3.3-0.3c0.1-0.1,0-0.1-0.1-0.1
			c-1,0.3-2,0.4-3,0.1c0-0.2,1-2.2,0.9-2.3c-0.5-0.1-1-0.1-1.6-0.1c1.1-2.8,2.6-5.4,3.6-8.1c0,0,0-0.1-0.1-0.1c0,0-0.1,0-0.1,0
			c-1.7,2.7-3.1,5.6-4.3,8.6C298.9,114.5,300.4,114.4,300.7,114.3z"/>
		<path class="st4" d="M319.2,115.6c-3.2-0.7-2.1-5.7-2.1-5.7s-3.5-1.1-2.6-7c-1.9,2.1-4.7,3.1-7.6,2.8c-1.1-0.1,3-2,3-2
			s-5,2.9-12.4-0.2c-0.5-0.2,2.4-8.1,9.1-9.6s11.8,1.3,14.8,5.9c0,0,4,3,3.6,7.3S320.5,115.9,319.2,115.6z"/>
		<path class="st9" d="M318.6,120.9c-0.2,0-0.4,0-0.7,0c-0.2,0-0.4,0-0.6-0.1c-0.3-0.1-0.5-0.2-0.7-0.4c-0.2-0.1-0.3-0.3-0.4-0.5
			c-0.2-0.3-0.3-0.6-0.4-0.9l1.5-3.5c0,0,3.9-3.6,5.6-2.2S321.1,120.5,318.6,120.9z"/>
		<path class="st4" d="M321.8,115c-1.6,0.4-3,1.5-3.8,3c0.5-0.6,1.3-0.6,1.8-0.2c0.1,0.1,0.1,0.1,0.2,0.2c0,0,0,0.1-0.1,0.1
			c-0.5-0.3-1.2-0.2-1.7,0.2c-0.4,0.3-0.7,0.7-1,1.1c-0.1,0.1-0.3,0-0.2-0.2l0,0C317.4,117.2,319.6,114.7,321.8,115L321.8,115z"/>
		<path class="st3" d="M318.6,120.3c-0.1,0.3-0.5,0.5-0.8,0.3c0,0,0,0,0,0c-0.3-0.1-0.5-0.5-0.4-0.8c0.1-0.3,0.5-0.5,0.8-0.4
			C318.5,119.5,318.7,119.9,318.6,120.3C318.6,120.2,318.6,120.3,318.6,120.3z"/>
		<path class="st3" d="M320.1,119.6c-0.1,0.2-0.4,0.3-0.6,0.2c-0.2-0.1-0.3-0.4-0.2-0.6c0,0,0,0,0,0c0.1-0.2,0.4-0.3,0.6-0.2
			C320.1,119.1,320.2,119.3,320.1,119.6z"/>
		<path class="st5" d="M297.7,99.3c0,0,7.3-14.9,20.6-8.5s6.2,21.4,6.2,21.4L297.7,99.3z"/>
		<rect x="309.9" y="89.7" transform="matrix(0.4335 -0.9012 0.9012 0.4335 80.93 340.267)" class="st5" width="2.4" height="32"/>
		<polygon class="st5" points="311.4,104.6 305.4,101.7 313.8,87.8 319.9,90.7 		"/>
		<polygon class="st14" points="311.4,104.6 305.4,101.7 313.8,87.8 319.9,90.7 		"/>
	</g>
	<g id="freepik--character-1--inject-2">
		<path class="st15" d="M60.6,119.3c-14.3,8.1-40.3,32.7-38.4,39.5c3.8,13.8,21.1,32.8,25.7,36.6c2.7,2.2,24.1-15.2,21.5-17.9
			c-2.9-3.1-21.2-20.2-21.2-21.8c0-1.3,10.4-15,18.1-26.6C75.2,115.6,67.4,115.5,60.6,119.3z"/>
		<path class="st15" d="M66.6,175.8c0,0,8.8,5.7,14.4,9.6c3.1,2.2,8.1,6.5,9.7,9.2c2.3,4,9.4,22.2,5,24.1c-4,1.6-8.1-14.8-8.1-14.8
			s5.6,16.2,0.5,17.3s-7.3-18-7.3-18s5.4,16.8-0.1,17.1c-4.2,0.2-7.1-17.1-7.1-17.1s4.5,14.5,0.3,14.9c-4.7,0.5-8.4-15.3-8.4-15.3
			c-11-0.8-17.5-5.1-19.6-10.8C45.5,190.8,66.6,175.8,66.6,175.8z"/>
		<path class="st4" d="M86.1,198.1c0.7,1.9,1.5,3.8,2,5.7s1,3.9,1.4,5.9c0.5,2.6,0.8,5.2,0.7,7.9c-0.2-4.7-2.1-11.7-2.7-13.6
			s-1-3.9-1.6-5.8C86,198.1,86.1,198.1,86.1,198.1z"/>
		<path class="st4" d="M79,200c0.8,2.4,1.7,4.8,2.5,7.3s1.2,4.9,1.7,7.4c0,0.2-0.1,0.2-0.1,0c-0.6-2.5-1.4-4.7-2.1-7.2
			S79.7,202.5,79,200C79,200,79,200,79,200z"/>
		<path class="st4" d="M72.7,200.6c1.4,3.7,2.3,7.6,2.9,11.5c0,0.2-0.1,0.1-0.2-0.1c-0.9-3.8-1.6-6.8-2.9-11.4
			C72.5,200.5,72.7,200.5,72.7,200.6z"/>
		<path class="st0" d="M65.1,172.8l-21.3,22c0,0-24.1-28.5-22.6-37.6s25-30.6,37.8-37.8s13.9,0.2,8.2,9.8s-18.2,26.6-18,27.1
			S65.1,172.8,65.1,172.8z"/>
		<path class="st4" d="M50.6,179.5c1.5-1.4,3-2.9,4.5-4.4c0.7-0.7,1.4-1.4,2.1-2.1s1.6-1.5,2.3-2.4c0,0,0-0.1,0-0.1c0,0-0.1,0-0.1,0
			l0,0c-0.9,0.6-1.7,1.4-2.5,2.1s-1.5,1.3-2.2,2c-1.6,1.4-3.1,2.8-4.6,4.2c-3.1,2.9-6,5.8-8.9,8.8c0,0,0,0.1,0,0.1c0,0,0.1,0,0.1,0
			C44.4,185.1,47.6,182.3,50.6,179.5z"/>
		<path class="st2" d="M67.2,129.2c-5.7,9.6-18.2,26.6-18,27.1s15.9,16.6,15.9,16.6l-21.3,22c0,0-11.1-13.2-17.8-24.5L69.1,117
			C71.7,118.4,70.7,123.4,67.2,129.2z"/>
		<path class="st15" d="M25.5,333.3c0,0-1,39.6-1,39.6c0,7.3,0.2,13.7,0.6,17c0,0,0,0,0,0c0,0.8,0.2,1.6,0.5,2.3l0,0
			c2.2,1.5,60.7,3,62.8,2.4s0.4-6.5-1.8-8.4s-24.4-12.5-24.4-12.5l0.6-39.6L25.5,333.3z"/>
		<path class="st3" d="M24.4,365.1c0,0,0.1,7.8,0.1,7.9c0,7.3,0.2,13.7,0.6,17c0,0,0,0,0,0c0.1,0.8,0.3,1.5,0.5,2.3l0,0
			c2.2,1.5,60.7,3,62.8,2.4s0.4-6.5-1.8-8.4s-24.4-12.5-24.4-12.5v-8L24.4,365.1z"/>
		<path class="st4" d="M65.8,373.9c-3.9-0.6-8.6,0-11.5,2.9c-0.1,0.1,0,0.3,0.2,0.2c3.7-1.3,7.5-2.2,11.4-2.6c0.1,0,0.2-0.2,0.2-0.3
			C66,374,65.9,373.9,65.8,373.9z"/>
		<path class="st4" d="M68.6,375.5c-3.9-0.6-8.6,0-11.5,2.9c-0.1,0.1,0,0.3,0.2,0.2c3.7-1.3,7.5-2.2,11.4-2.6c0.1,0,0.2-0.2,0.2-0.3
			C68.8,375.6,68.7,375.5,68.6,375.5z"/>
		<path class="st4" d="M71.5,377.1c-3.9-0.6-8.6,0-11.5,2.9c-0.1,0.1,0.1,0.3,0.2,0.2c3.7-1.3,7.5-2.2,11.4-2.6
			c0.1,0,0.2-0.2,0.2-0.3C71.6,377.2,71.6,377.1,71.5,377.1z"/>
		<path class="st10" d="M88.4,394.7c-2.1,0.6-60.6-0.9-62.8-2.4c-0.8-0.5-1.1-9.1-1.2-19.4v-0.3l37.8,0.6v0.6
			c0,0,22.1,10.6,24.4,12.5S90.5,394.1,88.4,394.7z"/>
		<path class="st5" d="M24.5,372.6v0.3c0,10.3,0.3,18.9,1.2,19.4c1,0.7,13.7,1.4,27.4,1.8c16.4,0.6,34.3,0.9,35.4,0.5
			c2.1-0.6,0.4-6.6-1.8-8.4s-24.4-12.5-24.4-12.5v-0.6L49.6,373L24.5,372.6z"/>
		<path class="st4" d="M87.8,392.5c-9.9-0.5-49.7-1.6-59.4-1.3c-0.1,0-0.1,0,0,0.1c9.8,0.7,49.6,1.5,59.4,1.4
			C88,392.6,88,392.5,87.8,392.5z"/>
		<path class="st14" d="M49.6,373c0.9,6.3,2.3,15.6,3.4,21.2c16.4,0.6,34.3,0.9,35.4,0.5c2.1-0.6,0.4-6.6-1.8-8.4
			s-24.4-12.5-24.4-12.5v-0.6L49.6,373z"/>
		<path class="st10" d="M21.1,373.2l42.3,0.4c0,0,2.4-68.9,2.6-91.9c0.2-26.3-1.3-105-1.3-105H33.1c0,0-8.5,17.4-3.6,36.9l1.4,70.2
			L21.1,373.2z"/>
		<path class="st4" d="M24.2,365.8c1.1-0.1,2.2-0.2,3.4-0.3c1.3-0.1,2.5-0.2,3.8-0.2c2.4-0.1,4.8-0.1,7.2-0.1c4.9,0,9.7,0,14.6,0.2
			c2.8,0.1,5.5,0.2,8.3,0.4c0,0,0.1,0,0.1,0.1c0,0,0,0.1-0.1,0.1c-4.8,0.2-9.6,0.2-14.5,0.3s-9.6,0.2-14.4,0.1c-1.4,0-2.8,0-4.2-0.1
			s-2.8,0-4.1-0.2C24.1,365.9,24.1,365.8,24.2,365.8z"/>
		<path class="st4" d="M60.4,327.7c0.5-11.4,0.9-22.8,1.2-34.2c0.6-22.8,0.8-45.6,0.5-68.5c-0.2-12.8-0.5-25.6-0.9-38.4
			c0-0.1,0.2-0.1,0.2,0c1.2,22.9,1.7,45.9,1.7,68.8s-0.4,45.7-1.6,68.4c-0.6,12.8-1.4,25.6-2.6,38.4c0,0,0,0.1-0.1,0.1
			c0,0-0.1,0-0.1-0.1c0,0,0,0,0-0.1C59.2,350.7,59.9,339.2,60.4,327.7z"/>
		<path class="st15" d="M70.8,339.6c0,0,0.3,38.3,0.3,38.3c0,7.3,0.2,13.7,0.6,17.1c0,0,0,0,0,0c0,0.8,0.2,1.6,0.6,2.3c0,0,0,0,0,0
			c2.2,1.5,60.7,3,62.8,2.4c2-0.6,0.4-6.5-1.8-8.4c-2.2-1.9-24.4-12.5-24.4-12.5l-0.7-38.3L70.8,339.6z"/>
		<path class="st3" d="M71,370.1c0,0,0.1,7.8,0.1,7.9c0,7.3,0.2,13.7,0.6,17.1c0,0,0,0,0,0c0.1,0.8,0.3,1.5,0.6,2.3c0,0,0,0,0,0
			c2.2,1.5,60.7,3,62.8,2.4c2.1-0.6,0.4-6.5-1.8-8.4c-2.2-1.9-24.4-12.5-24.4-12.5v-8L71,370.1z"/>
		<path class="st4" d="M112.4,378.8c-3.9-0.6-8.6,0-11.5,2.9c-0.1,0.1,0,0.3,0.2,0.2c3.7-1.3,7.5-2.2,11.4-2.6
			c0.1,0,0.2-0.2,0.2-0.3C112.6,378.9,112.5,378.9,112.4,378.8z"/>
		<path class="st4" d="M115.3,380.5c-3.9-0.6-8.6,0-11.5,2.9c-0.1,0.1,0,0.3,0.2,0.2c3.7-1.3,7.5-2.2,11.4-2.6
			c0.1,0,0.2-0.2,0.2-0.3C115.4,380.6,115.3,380.5,115.3,380.5z"/>
		<path class="st4" d="M118.1,382.1c-3.9-0.6-8.6,0.1-11.5,2.9c-0.1,0.1,0,0.3,0.2,0.2c3.7-1.3,7.5-2.1,11.4-2.6
			c0.1,0,0.3-0.1,0.3-0.2C118.3,382.2,118.2,382.1,118.1,382.1L118.1,382.1z"/>
		<path class="st5" d="M135,399.7c-2.1,0.6-60.6-0.9-62.8-2.4c-0.8-0.5-1.1-9.1-1.2-19.4c0-0.1,0-0.2,0-0.3l37.8,0.6v0.6
			c0,0,22.1,10.6,24.4,12.5C135.4,393.2,137.1,399.1,135,399.7z"/>
		<path class="st4" d="M134.4,397.4c-9.9-0.5-49.7-1.6-59.4-1.3c-0.1,0-0.1,0,0,0.1c9.8,0.7,49.6,1.5,59.4,1.4
			C134.6,397.6,134.6,397.4,134.4,397.4z"/>
		<path class="st10" d="M51.4,217.1c0,0,17.4,54.8,17.7,64.8c0.3,8.6-0.8,96.6-0.8,96.6l44,0.3c0,0-3.7-89.8-4.4-98.7
			c-1.3-16.7-15.9-62.6-26.4-103.5H34c0,0,0.4,21.4,10.2,36.9C44.2,213.5,48.6,215.6,51.4,217.1z"/>
		<path class="st4" d="M70.6,370.5c5.1-0.1,10.3-0.3,15.4-0.2s10.1,0.2,15.1,0.5c2.9,0.2,5.7,0.3,8.6,0.5c0,0,0.1,0.1,0,0.1
			c0,0,0,0,0,0c-5.1,0.3-10.2,0.2-15.3,0.2s-10.1-0.1-15.1-0.3c-2.8-0.1-5.7-0.3-8.6-0.5C70.5,370.9,70.3,370.5,70.6,370.5z"/>
		<path class="st4" d="M80.2,202.4c1.6,5.2,2.9,10.5,4.3,15.8s2.8,10.6,4.2,16c2.7,10.3,5.4,20.6,7.4,31.1
			c2.1,10.5,3.3,21.1,3.5,31.8c0.2,10.9,0,21.8-0.1,32.7s-0.2,21.9-0.4,32.9c0,1.4-0.1,2.7-0.1,4.1c0,0.1,0,0.1-0.1,0.1
			c-0.1,0-0.1,0-0.1-0.1c-0.3-10.9-0.1-21.8-0.1-32.7s0.2-21.8,0.1-32.7c0-10.8-1-21.6-2.8-32.3c-1.8-10.5-4.4-20.8-7.1-31.1
			c-1.5-5.9-3.1-11.8-4.6-17.6c-1.5-5.9-3.2-11.8-4.5-17.8c0-0.1,0.1-0.2,0.2-0.2C80.1,202.3,80.2,202.4,80.2,202.4z"/>
		<path class="st4" d="M62.3,218.2c-2.2,0-4.4-0.2-6.5-0.6c-2.1-0.5-4.3-1.1-6.3-1.8c-2-0.5-4.1-0.8-6.2-1c-2.1-0.3-4.2-0.9-6.1-1.8
			c-0.1,0-0.2,0.1-0.1,0.1c1.9,1,3.8,1.9,5.8,2.5c2.1,0.7,4.3,0.8,6.4,1.3c2.1,0.6,4.3,1.1,6.5,1.5c2.2,0.3,4.4,0.2,6.5-0.1
			C62.4,218.3,62.4,218.2,62.3,218.2z"/>
		<path class="st4" d="M65.1,261.8c-0.4-1.6-0.8-3.2-1.2-4.9c-0.9-3.3-1.8-6.5-2.8-9.8c-2-6.4-3.8-12.9-5.9-19.3
			c-1.2-3.6-2.2-7.3-3.6-10.9c0,0,0-0.1-0.1-0.1c0,0-0.1,0-0.1,0.1c0.7,3.3,1.7,6.6,2.6,9.9s1.8,6.5,2.8,9.8
			c1.9,6.5,3.7,13,5.8,19.4c0.6,1.8,1.2,3.6,1.8,5.4c0.6,1.8,1.1,3.7,1.9,5.5c0,0,0,0.1,0,0.1s0.1,0,0.1,0c0,0,0,0,0-0.1
			C66,265.1,65.5,263.4,65.1,261.8z"/>
		<path class="st15" d="M77.8,127.9c-3.2,0.1-8-6.3-9.3-10.5c0.6-2.1,1.2-4.2,2-6.2c0.6-2,1.3-4.2,1.7-6.3l12.3,6
			c-1.3,2.4-2.3,5-3,7.7c-0.1,0.3-0.1,0.6-0.1,0.9c0,0,0,0.1,0,0.1C81.4,121.2,80.9,127.8,77.8,127.9z"/>
		<path class="st4" d="M81.5,119.4c0,0,0,0.1,0,0.1c-0.5,0-0.9-0.1-1.4-0.2c-7.6-2-7.7-11-7.5-14.3l12,5.8c-1.3,2.4-2.3,5-3,7.7
			C81.5,118.8,81.5,119.1,81.5,119.4z"/>
		<path class="st15" d="M72.1,89.2c-2.1,4.5-1.7,18.3,1.2,21.8c4.2,5.1,12,6.7,16.6,1.4c4.4-5.1,3.5-23.1,0.2-26.4
			C85.2,81.2,75.2,82.6,72.1,89.2z"/>
		<path class="st4" d="M84.5,99.4C84.5,99.4,84.5,99.4,84.5,99.4c-0.1,1-0.1,2.1-1,2.4v0.1C84.6,101.7,84.7,100.3,84.5,99.4z"/>
		<path class="st4" d="M83.7,98.4c-1.5-0.1-1.6,2.9-0.2,3S85,98.5,83.7,98.4z"/>
		<path class="st4" d="M89.8,99.5C89.8,99.5,89.9,99.5,89.8,99.5c0.1,1,0.1,2.1,0.9,2.4c0,0,0,0.1,0,0.1
			C89.7,101.8,89.6,100.4,89.8,99.5z"/>
		<path class="st4" d="M90.6,98.5c1.5-0.1,1.5,2.9,0.2,3S89.4,98.6,90.6,98.5z"/>
		<path class="st4" d="M82.5,97c0.4-0.1,0.8-0.2,1.2-0.4c0.4-0.1,0.8-0.3,1.1-0.6c0.2-0.2,0.1-0.6-0.1-0.8c-0.5-0.3-1.1-0.4-1.6-0.2
			c-0.6,0.1-1.1,0.5-1.4,1c-0.2,0.3,0,0.7,0.3,0.9C82.2,97,82.4,97,82.5,97z"/>
		<path class="st4" d="M91.8,97.1c-0.4-0.1-0.8-0.2-1.2-0.3c-0.4-0.1-0.8-0.3-1.2-0.6c-0.2-0.2-0.2-0.5,0-0.8c0.4-0.4,1-0.5,1.6-0.3
			c0.6,0.1,1.1,0.4,1.4,0.9c0.2,0.3,0.1,0.7-0.2,0.9C92.1,97,92,97.1,91.8,97.1z"/>
		<path class="st4" d="M83.3,107.8c0.2,0.2,0.4,0.5,0.8,0.6c0.3,0,0.7-0.1,1-0.2c0,0,0.1,0,0,0.1c-0.3,0.4-0.7,0.6-1.2,0.5
			c-0.4-0.1-0.7-0.4-0.7-0.8C83.2,107.8,83.2,107.8,83.3,107.8C83.3,107.8,83.3,107.8,83.3,107.8L83.3,107.8z"/>
		<path class="st4" d="M84.4,105.1c0.5,0.8,1.2,1.3,2.1,1.5c0.4,0.1,0.8,0.1,1.1,0.1c0.1,0,0.1,0,0.2,0H88c0.1,0,0.2-0.1,0.2-0.2
			l0,0c0,0,0-0.1,0-0.1l0,0v-0.2c0-0.7,0-1.8,0-1.8c0.3,0.1,1.6,0.8,1.6,0.4c0-3.2-0.3-6.5-1-9.6c0,0,0-0.1-0.1-0.1
			c0,0-0.1,0-0.1,0.1c0,3,0.5,6,0.5,9c-0.5-0.2-1-0.4-1.5-0.5c-0.1,0,0.1,2.1,0.1,2.4l0,0c-1.2,0.1-2.4-0.3-3.3-1.1
			C84.4,104.9,84.3,105,84.4,105.1z"/>
		<path class="st4" d="M87.2,106.2c-0.4,0.5-0.9,0.9-1.5,1.1c-0.3,0.1-0.7,0.1-1,0c-0.7-0.2-0.7-0.9-0.6-1.5
			c0.1-0.3,0.2-0.6,0.4-0.9C85.2,105.7,86.2,106.1,87.2,106.2z"/>
		<path class="st13" d="M85.7,107.4c-0.3,0.1-0.7,0.1-1,0c-0.7-0.2-0.7-0.9-0.6-1.5C84.9,106,85.5,106.6,85.7,107.4z"/>
		<path class="st4" d="M91.2,87.9c-0.4-0.5-1.1-0.7-1.7-0.4c-0.9,0.4-1,1.5-2.5,1.9s-4.9-2.7-8-1.9s-3.9,4.6-4.1,7.4s-2,7-4,7
			C70.5,97,70.8,91.7,72,89.2c3.1-6.6,13.1-8.2,18-3.4C90.5,86.5,90.9,87.2,91.2,87.9z"/>
		<path class="st15" d="M73.3,100.6c0,0-2.5-4.8-4.6-3.9s-0.6,7.5,1.6,8.6c1.1,0.7,2.6,0.3,3.3-0.8c0,0,0-0.1,0.1-0.1L73.3,100.6z"
			/>
		<path class="st4" d="M69.2,98.6C69.2,98.6,69.2,98.6,69.2,98.6c1.4,1,2.4,2.5,2.6,4.2c-0.3-0.7-1.1-1-1.7-0.7
			c-0.1,0-0.1,0.1-0.2,0.1c0,0,0,0,0,0.1c0,0,0,0,0,0c0.6-0.1,1.2,0.2,1.5,0.7c0.2,0.4,0.4,0.9,0.6,1.4c0,0.1,0.3,0.1,0.3-0.1l0,0
			C72.6,102.2,71.4,99.1,69.2,98.6z"/>
		<path class="st5" d="M94.4,91.2c0,0-2.2-14.4-15-12.6c-12.8,1.8-10.9,16.3-10.9,16.3L94.4,91.2z"/>
		<rect x="67.4" y="92.1" transform="matrix(0.99 -0.1409 0.1409 0.99 -12.303 12.4023)" class="st5" width="28.1" height="2.1"/>
		<polygon class="st5" points="81.5,92 87.3,91.2 83.9,77.3 78.1,78.1 		"/>
		<polygon class="st14" points="81.5,92 87.3,91.2 83.9,77.3 78.1,78.1 		"/>
		<polygon class="st0" points="67.5,117.3 68.2,112.1 82.4,120.3 82.8,125.4 		"/>
		<path class="st5" d="M26.4,186.4c0.1,0.2,60,12.5,60.7,11.9c0.9-0.7,4.1-61.6-5.3-75.2c-2.3-3.3-11.3-8.1-14.6-6.5
			c-8.6,4-14.8,14.6-18.7,20.8c-2.9,4.6-6.8,12.5-10.6,20.7C31.7,171.6,26,185.7,26.4,186.4z"/>
		<path class="st0" d="M76.5,121.4c-8.7,0.7-6.6,25.7,3.5,24.8S85.3,120.7,76.5,121.4z"/>
		<path class="st3" d="M88.1,184.6c0,0.6,0,1.2,0,1.8l-57.4-11.8c0.2-0.5,0.5-1.1,0.7-1.7L88.1,184.6z"/>
		<path class="st3" d="M88,188.3c0,0.6-0.1,1.2-0.1,1.8l-58.6-12c0.2-0.5,0.4-1.1,0.7-1.7L88,188.3z"/>
		<path class="st15" d="M77.2,136.9c7.9,14,23.8,39.3,35.1,41c12,1.7,28.8-10.2,35.9-13.7c3-1.5-11.9-21.1-15.4-20.3
			c-3.5,0.8-14.5,8.8-17.2,8.9s-18.4-16-29.4-24.6C73.3,118,70.8,125.6,77.2,136.9z"/>
		<path class="st8" d="M137.9,119.1c0,0-4.8-4.3-7.4-0.8c-2.7,3.5,2.7,6.9,2.7,6.9L137.9,119.1z"/>
		<path class="st8" d="M168.7,152.2L168.7,152.2l6.2,1l2,0.4l-0.9-1.9l-2.6-5.6l0,0L137.7,119l-4.7,6.1L168.7,152.2L168.7,152.2z"/>
		<polygon class="st10" points="174.9,153.3 176.9,153.6 176,151.8 		"/>
		<polygon class="st10" points="133.8,126.5 139.3,119.4 137.9,118.3 132.4,125.5 		"/>
		<polygon class="st10" points="135.4,127.7 140.9,120.6 139.4,119.5 134,126.6 		"/>
		<polygon class="st10" points="140.9,120.6 139.1,122.9 153,131.4 153.6,130.5 		"/>
		<path class="st15" d="M156.6,124.4c1.4,0.9,2.1,2.5,1.8,4.1c1.4-0.1,2.7,0.4,3.8,1.2c1.9,1.6,0.2,5.1,0.2,5.1
			c1.4,0.2,2.8,0.9,3.8,1.9c1.6,1.7,0.5,5.5,0.5,5.5c1.2,0.9,2,2.3,2.3,3.8c0.6,4-4.1,8.1-7.1,10.7s-13.9,7.3-15.8,8.4l-17.5-19.3
			c0,0,6.6-12.4,14.5-17.7C146.4,125.9,153.9,122.9,156.6,124.4z"/>
		<path class="st4" d="M158,128.4c-4.1,1.5-7.5,4.1-11.1,6.4c0,0,0,0.1,0,0.1c0,0,0,0,0.1,0c3.5-2.4,7.5-4.1,11.1-6.4
			c0,0,0.1-0.1,0-0.1C158.1,128.4,158,128.4,158,128.4L158,128.4z"/>
		<path class="st4" d="M162.2,134.7c-0.9,0.4-1.7,1-2.5,1.6c-0.8,0.6-1.7,1.3-2.5,1.9c-1.6,1.3-3.2,2.6-4.8,4.1
			c-0.1,0.1,0,0.2,0.1,0.1c1.6-1.3,3.3-2.6,5-3.8c0.8-0.6,1.7-1.2,2.5-1.8c0.8-0.5,1.6-1.1,2.3-1.8c0.1-0.1,0.1-0.1,0-0.2
			C162.3,134.7,162.2,134.6,162.2,134.7z"/>
		<path class="st4" d="M166.7,142.4c-0.8,0.4-1.5,0.9-2.2,1.6c-0.7,0.6-1.5,1.2-2.2,1.8c-1.5,1.2-3,2.4-4.5,3.6
			c-0.1,0.1,0,0.2,0.1,0.1c1.6-1.2,3.1-2.3,4.7-3.5l2.3-1.8C165.6,143.7,166.3,143.1,166.7,142.4L166.7,142.4z"/>
		<path class="st0" d="M127.5,145.7l14.5,25.6c0,0-22.2,11.8-33.6,6.8s-27.8-31.3-33-43.1s0.2-15.9,10.5-7.7s28.4,24,29.1,24.4
			S127.5,145.7,127.5,145.7z"/>
		<path class="st4" d="M129,160.6c-1-1.9-2-3.7-3-5.5c-0.5-0.9-1-1.8-1.5-2.6s-1.1-1.9-1.7-2.8c0,0-0.1,0-0.1,0c0,0,0,0,0,0
			c0.4,1,0.9,2,1.4,3s0.9,1.8,1.3,2.7c0.9,1.9,1.9,3.7,2.9,5.6c2,3.7,4,7.3,6.2,10.9c0,0,0.1,0.1,0.1,0s0.1-0.1,0-0.1
			C132.8,168.1,131,164.3,129,160.6z"/>
		<path class="st4" d="M88,156.7c-1.1-1.6-2-3.2-2.9-4.9l-2.8-4.8c-1.9-3.2-3.7-6.5-5.6-9.7c0,0-0.1,0-0.1,0
			c0.9,2.1,1.8,4.1,2.8,6.1l-0.3-0.4c-0.6-0.8-1.2-1.5-1.8-2.2c0,0-0.1,0-0.1,0.1c0.6,0.8,1.1,1.6,1.7,2.4c0.4,0.5,0.8,1,1.2,1.4
			c0.5,0.9,0.9,1.7,1.4,2.6c0.9,1.6,1.9,3.2,3,4.8c1,1.6,2.2,3,3.2,4.7C87.9,156.8,88.1,156.8,88,156.7z"/>
	</g>
</g>
</svg>
